SplineFontDB: 3.0
FontName: Oxygen-Sans-Bold
FullName: Oxygen Sans Bold
FamilyName: Oxygen-Sans
Weight: Medium
Copyright: Font data copyright Vernon Adams 2013
Version: 
ItalicAngle: 0
UnderlinePosition: 0
UnderlineWidth: 0
Ascent: 1638
Descent: 410
UFOAscent: 1560
UFODescent: -555
LayerCount: 2
Layer: 0 0 "Back"  1
Layer: 1 0 "Fore"  0
FSType: 0
OS2Version: 0
OS2_WeightWidthSlopeOnly: 0
OS2_UseTypoMetrics: 1
CreationTime: 1379633845
ModificationTime: 1379634025
PfmFamily: 17
TTFWeight: 700
TTFWidth: 5
LineGap: 0
VLineGap: 0
OS2TypoAscent: 2356
OS2TypoAOffset: 0
OS2TypoDescent: -664
OS2TypoDOffset: 0
OS2TypoLinegap: 0
OS2WinAscent: 2356
OS2WinAOffset: 0
OS2WinDescent: 664
OS2WinDOffset: 0
HheadAscent: 2356
HheadAOffset: 0
HheadDescent: -664
HheadDOffset: 0
OS2Vendor: 'newt'
MarkAttachClasses: 1
DEI: 91125
LangName: 1033 "" "" "" "0.4;newt;Oxygen Sans Bold" "" "0.4" 
Encoding: UnicodeBmp
Compacted: 1
UnicodeInterp: none
NameList: AGL For New Fonts
DisplaySize: -72
AntiAlias: 1
FitToEm: 1
WinInfo: 24 12 7
BeginPrivate: 4
BlueValues 24 [-18 11 711 729 928 962]
OtherBlues 11 [-307 -115]
StemSnapH 36 [14 111 126 129 134 139 141 153 161]
StemSnapV 29 [133 162 172 172 177 179 202]
EndPrivate
BeginChars: 65539 590

StartChar: .notdef
Encoding: 65536 -1 0
Width: 1012
VWidth: 0
Flags: W
HStem: -267 107<209 841> 1269 107<209 841>
VStem: 105 104<-160 1269> 841 104<-160 1269>
LayerCount: 2
Fore
SplineSet
105 -267 m 1
 105 1376 l 1
 945 1376 l 1
 945 -267 l 1
 105 -267 l 1
209 -160 m 1
 841 -160 l 1
 841 1269 l 1
 209 1269 l 1
 209 -160 l 1
EndSplineSet
EndChar

StartChar: A
Encoding: 65 65 1
Width: 1320
VWidth: 0
Flags: W
HStem: 0 21G<16 267.634 1062.74 1310> 413 174<454 864>
LayerCount: 2
Fore
SplineSet
16 0 m 1
 518 1456 l 1
 809 1456 l 1
 1310 0 l 1
 1070 0 l 1
 920 413 l 1
 398 413 l 1
 261 0 l 1
 16 0 l 1
864 587 m 1
 664 1245 l 1
 454 587 l 1
 864 587 l 1
EndSplineSet
EndChar

StartChar: AE
Encoding: 198 198 2
Width: 1719
VWidth: 0
Flags: W
HStem: 0 195<1013 1635> 433 174<502 773> 682 191<1013 1573> 1302 190<1013 1616>
VStem: 773 240<195 433 607 682 873 1290>
LayerCount: 2
Fore
SplineSet
773 0 m 1
 773 433 l 1
 434 433 l 1
 254 0 l 1
 13 0 l 1
 641 1492 l 1
 1626 1492 l 1
 1616 1302 l 1
 1013 1302 l 1
 1013 873 l 1
 1573 873 l 1
 1573 682 l 1
 1013 682 l 1
 1013 195 l 1
 1643 195 l 1
 1635 0 l 1
 773 0 l 1
773 607 m 1
 773 1290 l 1
 502 607 l 1
 773 607 l 1
EndSplineSet
EndChar

StartChar: B
Encoding: 66 66 14
Width: 1312
VWidth: 0
Flags: W
HStem: -1 186<403.776 866.518> 679 170<400 873.818> 1270 187<402.408 849.42>
VStem: 160 240<188.375 679 849 1264.79> 941 241<911.988 1188.31> 989 238<287.835 589.145>
LayerCount: 2
Fore
SplineSet
160 15 m 1xf4
 160 1436 l 1
 319 1450 456 1457 573 1457 c 0
 1030 1457 1182 1345 1182 1085 c 0xf8
 1182 946 1122 839 958 776 c 1
 1124 724 1227 614 1227 430 c 0
 1227 129 1064 -1 533 -1 c 0
 425 -1 301 4 160 15 c 1xf4
400 1262 m 1
 400 849 l 1
 666 849 l 2
 842 849 941 889 941 1051 c 0
 941 1211 851 1270 591 1270 c 0
 535 1270 472 1267 400 1262 c 1
400 679 m 1
 400 191 l 1
 461 187 517 185 567 185 c 0
 912 185 989 273 989 440 c 0xf4
 989 621 879 679 643 679 c 2
 400 679 l 1
EndSplineSet
EndChar

StartChar: C
Encoding: 67 67 15
Width: 1330
VWidth: 0
Flags: W
HStem: -18 204<581.332 936.458> 1281 199<575.251 930.901>
VStem: 100 254<456.383 1012.99>
LayerCount: 2
Fore
SplineSet
1083 424 m 1
 1273 350 l 1
 1205 112 1010 -18 750 -18 c 0
 415 -18 100 232 100 733 c 0
 100 1203 367 1480 767 1480 c 0
 1063 1480 1233 1286 1260 1134 c 1
 1070 1061 l 1
 1043 1160 938 1281 764 1281 c 0
 517 1281 354 1110 354 727 c 0
 354 340 550 186 762 186 c 0
 943 186 1053 295 1083 424 c 1
EndSplineSet
EndChar

StartChar: D
Encoding: 68 68 22
Width: 1346
VWidth: 0
Flags: W
HStem: 0 189<400 729.48> 1268 187<403.16 789.852>
VStem: 160 240<190 1264.69> 1003 252<451.702 1059.6>
LayerCount: 2
Fore
SplineSet
160 9 m 1
 160 1435 l 1
 279 1448 387 1455 483 1455 c 0
 1068 1455 1255 1214 1255 746 c 0
 1255 293 1049 0 374 0 c 0
 307 0 236 3 160 9 c 1
400 1261 m 1
 400 190 l 1
 416 189 432 189 448 189 c 0
 932 189 1003 446 1003 741 c 1
 1003 1005 987 1268 538 1268 c 0
 496 1268 450 1266 400 1261 c 1
EndSplineSet
EndChar

StartChar: Dcroat
Encoding: 272 272 24
Width: 1509
VWidth: 0
Flags: W
HStem: 0 189<400 729.48> 719 93<62 586> 1268 187<403.16 789.852>
VStem: 160 240<190 1264.69> 1003 252<451.702 1059.6>
LayerCount: 2
Fore
SplineSet
62 719 m 1
 62 812 l 1
 586 812 l 1
 586 719 l 1
 62 719 l 1
EndSplineSet
Refer: 22 68 N 1 0 0 1 0 0 2
EndChar

StartChar: Delta
Encoding: 916 916 25
Width: 1291
VWidth: 0
Flags: W
HStem: 0 180<310 1038>
LayerCount: 2
Fore
SplineSet
310 180 m 1
 1038 180 l 1
 671 1277 l 1
 310 180 l 1
44 0 m 1
 568 1506 l 1
 775 1506 l 1
 1299 0 l 1
 44 0 l 1
EndSplineSet
EndChar

StartChar: E
Encoding: 69 69 26
Width: 1187
VWidth: 0
Flags: W
HStem: 0 195<400 1133> 654 191<400 1071> 1266 190<400 1111>
VStem: 160 240<195 654 845 1266>
LayerCount: 2
Fore
SplineSet
160 0 m 1
 160 1456 l 1
 1124 1456 l 1
 1111 1266 l 1
 400 1266 l 1
 400 845 l 1
 1071 845 l 1
 1071 654 l 1
 400 654 l 1
 400 195 l 1
 1141 195 l 1
 1133 0 l 1
 160 0 l 1
EndSplineSet
EndChar

StartChar: Eng
Encoding: 330 330 35
Width: 1322
VWidth: 0
Flags: W
HStem: -325 200<667 979.807> 7 21G<127.987 364> 1323 196<606.322 949.378>
VStem: 127 212<1366.66 1495> 128 236<7 1140.45> 1041 237<-63.5512 1226.71>
LayerCount: 2
Fore
SplineSet
813 -325 m 0xf4
 796 -325 749 -324 667 -316 c 1
 646 -118 l 1
 737 -124 778 -125 791 -125 c 0
 1016 -125 1041 -58 1041 170 c 2
 1041 985 l 2
 1041 1236 973 1323 786 1323 c 0
 619 1323 453 1228 364 1082 c 1
 364 7 l 1
 128 7 l 1xec
 127 1495 l 1
 339 1495 l 1
 360 1307 l 1
 502 1461 682 1519 844 1519 c 0
 1131 1519 1278 1327 1278 993 c 2
 1278 169 l 2
 1278 -146 1175 -325 813 -325 c 0xf4
EndSplineSet
EndChar

StartChar: Eth
Encoding: 208 208 38
Width: 1512
VWidth: 0
Flags: W
HStem: 0 189<400 729.48> 676 159<36 674> 1268 187<403.16 789.852>
VStem: 160 240<190 1264.69> 1003 252<451.702 1059.6>
LayerCount: 2
Fore
SplineSet
674 835 m 1
 674 676 l 1
 36 676 l 1
 36 835 l 1
 674 835 l 1
EndSplineSet
Refer: 22 68 N 1 0 0 1 0 0 2
EndChar

StartChar: Euro
Encoding: 8364 8364 39
Width: 1288
VWidth: 0
Flags: W
HStem: -18 204<581.332 936.458> 527 133<-12 160 293 861> 810 132<-9 160 293 864> 1281 199<575.251 930.901>
VStem: 100 254<456.383 1012.99> 160 133<660 810>
LayerCount: 2
Fore
SplineSet
861 527 m 1xf4
 -15 527 l 1
 -12 660 l 1
 160 660 l 1
 160 810 l 1
 -12 810 l 1
 -9 942 l 1
 868 942 l 1
 864 810 l 1
 293 810 l 1
 293 660 l 1
 864 660 l 1
 861 527 l 1xf4
EndSplineSet
Refer: 15 67 N 1 0 0 1 0 0 2
EndChar

StartChar: F
Encoding: 70 70 40
Width: 1188
VWidth: 0
Flags: W
HStem: 0 21G<160 400> 629 188<400 1085> 1259 197<400 1128>
VStem: 160 240<0 629 817 1259>
LayerCount: 2
Fore
SplineSet
160 0 m 1
 160 1456 l 1
 1142 1456 l 1
 1128 1259 l 1
 400 1259 l 1
 400 817 l 1
 1085 817 l 1
 1085 629 l 1
 400 629 l 1
 400 0 l 1
 160 0 l 1
EndSplineSet
EndChar

StartChar: G
Encoding: 71 71 41
Width: 1383
VWidth: 0
Flags: W
HStem: -18 204<583.533 1020.88> 593 205<753 1022> 1252 204<593.087 1001.92>
VStem: 110 254<426.159 994.939> 1022 220<206.347 593>
LayerCount: 2
Fore
SplineSet
782 -18 m 0
 341 -18 110 265 110 718 c 0
 110 1186 380 1456 800 1456 c 0
 1051 1456 1180 1348 1255 1272 c 1
 1134 1117 l 1
 1078 1166 976 1252 804 1252 c 0
 505 1252 364 1059 364 721 c 0
 364 380 478 186 802 186 c 0
 917 186 978 203 1022 223 c 1
 1022 593 l 1
 744 593 l 1
 753 798 l 1
 1242 798 l 1
 1242 85 l 1
 1088 20 980 -18 782 -18 c 0
EndSplineSet
EndChar

StartChar: Gamma
Encoding: 915 915 42
Width: 1233
VWidth: 0
Flags: W
HStem: 0 21G<234 358> 1412 99<358 1098>
VStem: 234 124<0 1412>
LayerCount: 2
Fore
SplineSet
234 0 m 1
 234 1511 l 1
 1103 1509 l 1
 1098 1411 l 1
 358 1412 l 1
 358 0 l 1
 234 0 l 1
EndSplineSet
EndChar

StartChar: H
Encoding: 72 72 48
Width: 1456
VWidth: 0
Flags: W
HStem: 0 21G<160 400 1056 1296> 651 193<400 1056>
VStem: 160 240<0 651 844 1456> 1056 240<0 651 844 1456>
LayerCount: 2
Fore
SplineSet
160 0 m 1
 160 1456 l 1
 400 1456 l 1
 400 844 l 1
 1056 844 l 1
 1056 1456 l 1
 1296 1456 l 1
 1296 0 l 1
 1056 0 l 1
 1056 651 l 1
 400 651 l 1
 400 0 l 1
 160 0 l 1
EndSplineSet
EndChar

StartChar: Hbar
Encoding: 294 294 49
Width: 1449
VWidth: 0
Flags: W
HStem: 0 21G<168 389 1115 1338> 677 181<389 1115> 1162 128<83 168 389 1115 1338 1423>
VStem: 168 221<0 677 858 1162 1290 1484> 1115 223<0 677 858 1162 1290 1484>
LayerCount: 2
Fore
SplineSet
389 858 m 1
 1115 858 l 1
 1115 1162 l 1
 389 1162 l 1
 389 858 l 1
168 0 m 1
 168 1162 l 1
 83 1162 l 1
 83 1290 l 1
 168 1290 l 1
 168 1484 l 1
 389 1484 l 1
 389 1290 l 1
 1115 1290 l 1
 1115 1484 l 1
 1338 1484 l 1
 1338 1290 l 1
 1423 1290 l 1
 1423 1162 l 1
 1338 1162 l 1
 1338 0 l 1
 1115 0 l 1
 1115 677 l 1
 389 677 l 1
 389 0 l 1
 168 0 l 1
EndSplineSet
EndChar

StartChar: I
Encoding: 73 73 51
Width: 960
VWidth: 0
Flags: W
HStem: 0 153<156 362 602 804> 1303 153<156 362 602 804>
VStem: 362 240<153 1303>
LayerCount: 2
Fore
SplineSet
156 1456 m 1
 804 1456 l 1
 804 1303 l 1
 602 1303 l 1
 602 153 l 1
 804 153 l 1
 804 0 l 1
 156 0 l 1
 156 153 l 1
 362 153 l 1
 362 1303 l 1
 156 1303 l 1
 156 1456 l 1
EndSplineSet
EndChar

StartChar: J
Encoding: 74 74 62
Width: 771
VWidth: 0
Flags: W
HStem: -216 193<51.1638 255.952>
VStem: 381 240<92.0154 1456>
LayerCount: 2
Fore
SplineSet
124 -209 m 1
 52 -216 l 1
 30 -23 l 1
 115 -11 l 1
 307 15 381 65 381 268 c 2
 381 1456 l 1
 621 1456 l 1
 621 263 l 2
 621 -88 463 -175 124 -209 c 1
EndSplineSet
EndChar

StartChar: K
Encoding: 75 75 64
Width: 1320
VWidth: 0
Flags: W
HStem: 0 21G<160 400 1020.79 1324>
VStem: 160 240<0 539 769 1456>
LayerCount: 2
Fore
SplineSet
160 0 m 1
 160 1456 l 1
 400 1456 l 1
 400 769 l 1
 1007 1456 l 1
 1291 1456 l 1
 713 801 l 1
 1324 0 l 1
 1036 0 l 1
 525 672 l 1
 400 539 l 1
 400 0 l 1
 160 0 l 1
EndSplineSet
EndChar

StartChar: L
Encoding: 76 76 66
Width: 1108
VWidth: 0
Flags: W
HStem: 0 184<400 1059>
VStem: 160 240<184 1456>
LayerCount: 2
Fore
SplineSet
160 0 m 1
 160 1456 l 1
 400 1456 l 1
 400 184 l 1
 1071 184 l 1
 1059 0 l 1
 160 0 l 1
EndSplineSet
EndChar

StartChar: Lambda
Encoding: 923 923 68
Width: 1291
VWidth: 0
Flags: W
HStem: 0 21G<43 240.775 1106.15 1299>
LayerCount: 2
Fore
SplineSet
43 0 m 1
 578 1502 l 1
 764 1502 l 1
 1299 0 l 1
 1113 0 l 1
 671 1290 l 1
 234 0 l 1
 43 0 l 1
EndSplineSet
EndChar

StartChar: M
Encoding: 77 77 73
Width: 1829
VWidth: 0
Flags: W
HStem: 0 21G<160 386.34 1456.63 1683>
VStem: 160 226<0 579.812> 196 202<876.188 1099> 1444 203<876.188 1092> 1457 226<0 579.812>
LayerCount: 2
Fore
SplineSet
160 0 m 1xc0
 196 1456 l 1
 458 1456 l 1
 923 490 l 1
 1392 1456 l 1
 1647 1456 l 1xb0
 1683 0 l 1
 1457 0 l 1x88
 1444 708 l 1
 1444 1092 l 1
 1007 206 l 1
 832 206 l 1
 399 1099 l 1
 398 705 l 1xb0
 386 0 l 1
 160 0 l 1xc0
EndSplineSet
EndChar

StartChar: N
Encoding: 78 78 75
Width: 1456
VWidth: 0
Flags: W
HStem: 0 21G<160 388 1012.26 1296>
VStem: 160 228<0 1084.7> 160 213<584.302 1109> 1068 228<326 1456>
LayerCount: 2
Fore
SplineSet
160 0 m 1xd0
 160 1456 l 1
 422 1456 l 1
 1079 326 l 1
 1068 788 l 1
 1068 1456 l 1
 1296 1456 l 1
 1296 0 l 1
 1024 0 l 1
 373 1109 l 1xb0
 388 560 l 1
 388 0 l 1
 160 0 l 1xd0
EndSplineSet
EndChar

StartChar: O
Encoding: 79 79 80
Width: 1527
VWidth: 0
Flags: W
HStem: -18 204<572.602 957.639> 1276 204<574.923 956.025>
VStem: 102 254<430.708 1010.64> 1171 254<430.896 1024.48>
LayerCount: 2
Fore
SplineSet
766 -18 m 0
 330 -18 102 258 102 725 c 0
 102 1201 335 1480 766 1480 c 0
 1193 1480 1425 1199 1425 724 c 0
 1425 260 1200 -18 766 -18 c 0
765 186 m 0
 1057 186 1171 398 1171 724 c 0
 1171 1060 1054 1276 766 1276 c 0
 479 1276 356 1061 356 724 c 0
 356 398 473 186 765 186 c 0
EndSplineSet
EndChar

StartChar: OE
Encoding: 338 338 81
Width: 1968
VWidth: 0
Flags: W
HStem: 863 21<1481 1765> 1044 250<804.719 946.361> 1059 28<1468 1784>
VStem: 407 188<276.492 764.034> 786 9<171.467 201> 1303 165<979 1059>
LayerCount: 2
Fore
SplineSet
672 995 m 1x9c
 623 839 596 661 596 565 c 0
 595 548 595 532 595 516 c 0
 595 342 643 183 786 168 c 1
 774 118 767 76 767 44 c 0
 767 3 779 -21 807 -21 c 1
 551 -21 407 217 407 532 c 0
 407 755 508 917 672 995 c 1x9c
672 995 m 1
 723 1156 799 1294 899 1294 c 1
 918 1298 934 1300 949 1300 c 0
 998 1300 1025 1278 1033 1241 c 1
 995 1241 963 1157 936 1043 c 1
 922 1044 910 1044 899 1044 c 0xdc
 816 1044 739 1027 672 995 c 1
936 1043 m 1
 1045 1038 1246 1015 1303 979 c 1
 1306 1059 l 1
 1468 1059 l 1xbc
 1468 863 l 1
 1481 863 l 1
 1485 619 l 1
 1786 619 l 1
 1772 435 l 1
 1754 456 1071 473 1024 473 c 0
 906 473 826 425 821 292 c 1
 811 260 803 229 795 201 c 1
 798 250 826 348 858 463 c 1
 861 540 888 839 936 1043 c 1
1468 1059 m 1
 1468 1087 l 1
 1784 1087 l 1
 1798 1059 l 1
 1468 1059 l 1
1481 863 m 1
 1481 884 l 1
 1765 884 l 1
 1765 863 l 1
 1481 863 l 1
786 168 m 1
 789 179 792 190 795 201 c 1
 794 180 797 168 807 167 c 1
 800 167 793 167 786 168 c 1
EndSplineSet
EndChar

StartChar: Omega
Encoding: 937 937 90
Width: 1606
VWidth: 0
Flags: W
HStem: -20 221<639.162 1024.18> 1285 222<640.474 1022.87>
VStem: 118 273<490.818 993.542> 1270 274<482.114 993.136>
LayerCount: 2
Fore
SplineSet
832 -20 m 0
 401 -20 118 270 118 741 c 0
 118 1219 405 1507 832 1507 c 0
 1257 1507 1544 1218 1544 741 c 0
 1544 273 1261 -20 832 -20 c 0
832 201 m 0
 1107 201 1270 423 1270 739 c 0
 1270 1063 1104 1285 832 1285 c 0
 560 1285 391 1064 391 739 c 0
 391 423 557 201 832 201 c 0
EndSplineSet
EndChar

StartChar: Oslash
Encoding: 216 216 91
Width: 1616
VWidth: 0
Flags: W
HStem: -239 21G<487.651 550.655> -18 204<572.602 957.639> 1276 204<574.923 956.025>
VStem: 102 254<430.708 1010.64> 1171 254<430.896 1024.48>
LayerCount: 2
Fore
SplineSet
543 -239 m 1
 424 -196 l 1
 1151 1724 l 1
 1276 1676 l 1
 543 -239 l 1
EndSplineSet
Refer: 80 79 N 1 0 0 1 0 0 2
EndChar

StartChar: P
Encoding: 80 80 94
Width: 1323
VWidth: 0
Flags: W
HStem: 0 21G<160 400> 580 184<400 854.195> 1270 187<404.138 891.738>
VStem: 160 240<0 581 767 1265.18> 999 243<874.183 1176.64>
LayerCount: 2
Fore
SplineSet
160 0 m 1
 160 1438 l 1
 317 1450 452 1457 569 1457 c 0
 1086 1457 1242 1333 1242 1039 c 0
 1242 771 1133 580 478 580 c 0
 453 580 427 580 400 581 c 1
 400 0 l 1
 160 0 l 1
599 1270 m 0
 541 1270 475 1268 400 1262 c 1
 400 767 l 1
 444 765 485 764 523 764 c 0
 919 764 999 860 999 1017 c 0
 999 1178 943 1270 599 1270 c 0
EndSplineSet
EndChar

StartChar: Phi
Encoding: 934 934 95
Width: 1570
VWidth: 0
Flags: W
HStem: 0 21G<722 903> 171 165<551.326 722 903 1080.36> 1199 165<550.303 722 903 1075.69>
VStem: 104 193<573.836 973.979> 722 181<0 174.543 336 1199 1360.7 1502> 1332 194<573.063 974.149>
LayerCount: 2
Fore
SplineSet
903 336 m 1
 1200 366 1332 549 1332 776 c 0
 1332 1008 1191 1171 903 1199 c 1
 903 336 l 1
722 336 m 1
 722 1199 l 1
 439 1170 297 1010 297 776 c 0
 297 551 426 368 722 336 c 1
722 0 m 1
 722 171 l 1
 318 204 104 452 104 776 c 0
 104 1104 329 1333 722 1364 c 1
 722 1502 l 1
 903 1502 l 1
 903 1364 l 1
 1298 1335 1526 1106 1526 776 c 0
 1526 452 1312 202 903 171 c 1
 903 0 l 1
 722 0 l 1
EndSplineSet
EndChar

StartChar: Pi
Encoding: 928 928 96
Width: 1368
VWidth: 0
Flags: W
HStem: 0 21G<141 323 1101 1283> 1342 160<323 1101>
VStem: 141 182<0 1342> 1101 182<0 1342>
LayerCount: 2
Fore
SplineSet
141 0 m 1
 141 1502 l 1
 1283 1502 l 1
 1283 0 l 1
 1101 0 l 1
 1101 1342 l 1
 323 1342 l 1
 323 0 l 1
 141 0 l 1
EndSplineSet
EndChar

StartChar: Q
Encoding: 81 81 97
Width: 1623
VWidth: 0
Flags: W
HStem: -18 204<572.602 957.639> 1276 204<574.923 956.025>
VStem: 102 254<430.708 1010.64> 1171 254<430.896 1024.48>
LayerCount: 2
Fore
SplineSet
1271 -465 m 1
 1158 -329 976 -56 894 121 c 1
 1047 201 l 1
 1131 37 1294 -196 1410 -338 c 1
 1271 -465 l 1
EndSplineSet
Refer: 80 79 N 1 0 0 1 0 0 2
EndChar

StartChar: R
Encoding: 82 82 98
Width: 1356
VWidth: 0
Flags: W
HStem: 0 21G<160 400 1001.06 1279> 630 174<400 734.819> 1266 190<402.801 891.653>
VStem: 160 240<0 638 810.849 1259.83> 971 252<892.252 1192.59>
LayerCount: 2
Fore
SplineSet
160 0 m 1
 160 1434 l 1
 337 1449 466 1456 592 1456 c 0
 1107 1456 1223 1329 1223 1048 c 0
 1223 822 1101 731 951 678 c 1
 1279 0 l 1
 1010 0 l 1
 726 635 l 1
 678 631 631 630 588 630 c 0
 514 630 450 634 400 638 c 1
 400 0 l 1
 160 0 l 1
400 814 m 1
 482 808 553 804 615 804 c 0
 879 804 971 866 971 1044 c 0
 971 1200 919 1266 613 1266 c 0
 547 1266 484 1263 400 1257 c 1
 400 814 l 1
EndSplineSet
EndChar

StartChar: S
Encoding: 83 83 102
Width: 1143
VWidth: 0
Flags: W
HStem: -17 202<384.299 742.044> 1282 198<407.609 761.895>
VStem: 91 236<973.531 1208.26> 826 241<260.173 508.232>
LayerCount: 2
Fore
SplineSet
561 -17 m 0
 310 -17 134 123 75 247 c 1
 245 357 l 1
 313 260 409 185 560 185 c 0
 709 185 826 242 826 387 c 0
 826 497 782 535 631 600 c 0
 317 735 91 754 91 1083 c 0
 91 1374 332 1480 579 1480 c 0
 857 1480 993 1344 1037 1188 c 1
 853 1110 l 1
 812 1228 728 1282 592 1282 c 0
 449 1282 327 1230 327 1097 c 0
 327 1003 361 965 457 922 c 0
 821 762 1067 752 1067 399 c 0
 1067 101 824 -17 561 -17 c 0
EndSplineSet
EndChar

StartChar: Sigma
Encoding: 931 931 108
Width: 1087
VWidth: 0
Flags: W
HStem: 0 197<388 1026> 675 190<388 976> 1282 198<388 1018>
VStem: 142 246<197 675 865 1282>
LayerCount: 2
Fore
SplineSet
142 0 m 1
 142 1480 l 1
 1028 1480 l 1
 1018 1282 l 1
 388 1282 l 1
 388 865 l 1
 976 865 l 1
 976 675 l 1
 388 675 l 1
 388 197 l 1
 1033 197 l 1
 1026 0 l 1
 142 0 l 1
EndSplineSet
EndChar

StartChar: T
Encoding: 84 84 109
Width: 1185
VWidth: 0
Flags: W
HStem: 0 21G<472 712> 1272 184<31 472 712 1154>
VStem: 472 240<0 1272>
LayerCount: 2
Fore
SplineSet
472 0 m 1
 472 1272 l 1
 31 1272 l 1
 31 1456 l 1
 1154 1456 l 1
 1154 1272 l 1
 712 1272 l 1
 712 0 l 1
 472 0 l 1
EndSplineSet
EndChar

StartChar: Thorn
Encoding: 222 222 114
Width: 1150
VWidth: 0
Flags: W
HStem: 0 21G<148 388> 431 179<388 772.94> 1016 172<388 778.551>
VStem: 148 240<0 431 610 1016 1188 1492> 835 253<663.443 958.543>
LayerCount: 2
Fore
SplineSet
148 0 m 1
 148 1492 l 1
 388 1492 l 1
 388 1188 l 1
 584 1188 l 2
 886 1188 1088 1105 1088 828 c 0
 1088 582 969 431 583 431 c 2
 388 431 l 1
 388 0 l 1
 148 0 l 1
388 1016 m 1
 388 610 l 1
 576 610 l 2
 801 610 835 676 835 823 c 0
 835 963 771 1016 594 1016 c 2
 388 1016 l 1
EndSplineSet
EndChar

StartChar: U
Encoding: 85 85 115
Width: 1396
VWidth: 0
Flags: W
HStem: -18 204<512.833 881.295>
VStem: 134 240<331.96 1456> 1024 240<332.609 1456>
LayerCount: 2
Fore
SplineSet
697 -18 m 0
 315 -18 134 195 134 537 c 2
 134 1456 l 1
 374 1456 l 1
 374 550 l 2
 374 308 470 186 697 186 c 0
 923 186 1024 309 1024 551 c 2
 1024 1456 l 1
 1264 1456 l 1
 1264 535 l 2
 1264 199 1077 -18 697 -18 c 0
EndSplineSet
EndChar

StartChar: V
Encoding: 86 86 128
Width: 1300
VWidth: 0
Flags: W
HStem: 0 21G<501.228 782.992>
LayerCount: 2
Fore
SplineSet
508 0 m 1
 15 1456 l 1
 275 1456 l 1
 401 1067 534 684 652 287 c 1
 774 681 904 1066 1030 1456 c 1
 1285 1456 l 1
 776 0 l 1
 508 0 l 1
EndSplineSet
EndChar

StartChar: W
Encoding: 87 87 129
Width: 1812
VWidth: 0
Flags: W
HStem: 0 21G<417.739 666.365 1210.12 1467.47>
LayerCount: 2
Fore
SplineSet
423 0 m 1
 40 1456 l 1
 286 1456 l 1
 550 344 l 1
 834 1438 l 1
 1067 1438 l 1
 1332 338 l 1
 1614 1456 l 1
 1860 1456 l 1
 1462 0 l 1
 1215 0 l 1
 951 1081 l 1
 661 0 l 1
 423 0 l 1
EndSplineSet
EndChar

StartChar: X
Encoding: 88 88 134
Width: 1359
VWidth: 0
Flags: W
HStem: 0 21G<47 317.86 1026.8 1313>
LayerCount: 2
Fore
SplineSet
1040 0 m 1
 681 544 l 1
 304 0 l 1
 47 0 l 1
 548 745 l 1
 79 1456 l 1
 351 1456 l 1
 700 928 l 1
 1037 1456 l 1
 1292 1456 l 1
 828 734 l 1
 1313 0 l 1
 1040 0 l 1
EndSplineSet
EndChar

StartChar: Y
Encoding: 89 89 135
Width: 1270
VWidth: 0
Flags: W
HStem: 0 21G<520 760>
VStem: 520 240<0 538>
LayerCount: 2
Fore
SplineSet
520 0 m 1
 520 538 l 1
 13 1456 l 1
 269 1456 l 1
 639 762 l 1
 1004 1456 l 1
 1257 1456 l 1
 760 540 l 1
 760 0 l 1
 520 0 l 1
EndSplineSet
EndChar

StartChar: Z
Encoding: 90 90 140
Width: 1216
VWidth: 0
Flags: W
HStem: 0 184<360 1117> 1272 184<116 825>
LayerCount: 2
Fore
SplineSet
88 0 m 1
 88 164 l 1
 825 1272 l 1
 116 1272 l 1
 108 1456 l 1
 1101 1456 l 1
 1104 1285 l 1
 360 184 l 1
 1117 184 l 1
 1137 0 l 1
 88 0 l 1
EndSplineSet
EndChar

StartChar: a
Encoding: 97 97 144
Width: 1110
VWidth: 0
Flags: W
HStem: -18 166<342.023 642.331> 0 21G<820.092 986> 491 137<392.25 766> 927 174<369.393 701.533>
VStem: 94 207<190.126 414.828> 766 220<238.906 487 618 854.361> 824 162<0 73.3666>
LayerCount: 2
Fore
SplineSet
790 174 m 1x7a
 711 48 621 -18 425 -18 c 0
 243 -18 94 87 94 299 c 0
 94 523 280 628 561 628 c 0
 650 628 716 623 767 618 c 1
 767 697 l 2
 767 859 690 927 556 927 c 0
 413 927 350 908 314 788 c 1
 132 840 l 1
 166 1024 328 1101 559 1101 c 0
 785 1101 986 990 986 677 c 2xbc
 986 0 l 1
 824 0 l 1
 790 174 l 1x7a
766 487 m 1
 721 489 665 491 626 491 c 0
 436 491 301 436 301 316 c 0
 301 209 356 148 460 148 c 0
 602 148 707 209 766 281 c 1
 766 487 l 1
EndSplineSet
EndChar

StartChar: acute
Encoding: 180 180 148
Width: 585
VWidth: 0
Flags: W
HStem: 1058 411
VStem: 149 447
LayerCount: 2
Fore
SplineSet
149 1058 m 1
 327 1469 l 1
 596 1469 l 1
 287 1058 l 1
 149 1058 l 1
EndSplineSet
EndChar

StartChar: ae
Encoding: 230 230 150
Width: 1689
VWidth: 0
Flags: W
HStem: -20 165<336.345 638.588 1110.48 1472.23> 476 151<352.697 735 952 1341.26> 925 176<242.679 660.072> 944 157<1088.93 1397.05>
VStem: 88 207<185.517 421.819> 735 217<299.362 476 627 796.22> 1435 176<701.657 904.625>
LayerCount: 2
Fore
SplineSet
952 627 m 1xde
 1320 627 1435 677 1435 792 c 0
 1435 897 1377 944 1252 944 c 0
 1111 944 975 875 952 627 c 1xde
449 145 m 0
 555 145 696 201 781 278 c 1
 763 323 742 402 739 476 c 1
 598 476 l 2
 367 476 295 425 295 312 c 0
 295 198 352 145 449 145 c 0
418 -20 m 0
 223 -20 88 114 88 320 c 0
 88 562 281 627 605 627 c 2
 735 627 l 1
 735 714 l 2
 735 873 629 925 485 925 c 0
 368 925 261 892 186 857 c 1
 137 1020 l 1
 225 1063 354 1101 508 1101 c 0xee
 673 1101 813 1029 872 900 c 1
 932 1020 1081 1101 1235 1101 c 0
 1521 1101 1611 947 1611 783 c 0
 1611 606 1487 480 950 480 c 1
 960 242 1096 156 1278 155 c 0
 1394 155 1483 188 1549 223 c 1
 1583 66 l 1
 1528 29 1432 -18 1274 -18 c 0
 1101 -18 944 41 866 148 c 1
 777 57 596 -20 418 -20 c 0
EndSplineSet
EndChar

StartChar: ampersand
Encoding: 38 38 154
Width: 1414
VWidth: 0
Flags: W
HStem: -18 178<457.865 840.904> 1348 161<523.938 786.695>
VStem: 129 218<267.295 562.816> 265 208<1023.82 1299.42> 827 204<1068.64 1307.69>
LayerCount: 2
Fore
SplineSet
599 915 m 1xd8
 714 975 827 1073 827 1192 c 0
 827 1296 763 1348 660 1348 c 0
 555 1348 473 1294 473 1188 c 0
 473 1096 515 1001 599 915 c 1xd8
644 160 m 0
 757 160 840 192 911 250 c 1
 523 689 l 1
 418 627 347 536 347 410 c 0xe8
 347 240 475 160 644 160 c 0
635 -18 m 0
 346 -18 129 119 129 401 c 0xe8
 129 618 253 729 415 822 c 1
 327 922 265 1041 265 1171 c 0xd8
 265 1387 447 1509 655 1509 c 0
 846 1509 1031 1414 1031 1197 c 0
 1031 1016 872 878 704 788 c 1
 1057 390 l 1
 1108 448 1170 551 1206 627 c 1
 1359 525 l 1
 1318 437 1248 326 1182 254 c 1
 1365 63 l 1
 1166 -16 l 1
 1032 114 l 1
 906 19 813 -18 635 -18 c 0
EndSplineSet
EndChar

StartChar: approxequal
Encoding: 8776 8776 156
Width: 1212
VWidth: 0
Flags: W
HStem: 318 327<727.278 977.803> 474 329<292.827 552.47>
LayerCount: 2
Fore
SplineSet
124 556 m 1x40
 162 702 255 803 409 803 c 0x40
 498 803 585 764 666 721 c 0
 747 677 809 645 867 645 c 0x80
 947 645 1004 697 1060 803 c 1x40
 1156 724 l 1
 1144 681 1126 641 1102 606 c 1
 1155 562 l 1
 1117 424 1016 318 857 318 c 0x80
 767 318 692 350 588 409 c 1
 523 448 468 474 405 474 c 0
 311 474 258 408 226 314 c 1
 123 395 l 1
 135 440 152 480 175 515 c 1
 124 556 l 1x40
EndSplineSet
EndChar

StartChar: asciicircum
Encoding: 94 94 159
Width: 1178
VWidth: 0
Flags: W
LayerCount: 2
Fore
SplineSet
94 545 m 1
 537 1480 l 1
 654 1480 l 1
 1123 545 l 1
 939 545 l 1
 597 1240 l 1
 277 545 l 1
 94 545 l 1
EndSplineSet
EndChar

StartChar: asciitilde
Encoding: 126 126 160
Width: 1181
VWidth: 0
Flags: W
HStem: 492 177<695.489 969.242> 630 176<266.282 546.418>
LayerCount: 2
Fore
SplineSet
183 480 m 1x40
 114 609 l 1
 162 717 248 806 388 806 c 0x40
 470 806 544 780 634 740 c 0
 724 700 796 669 852 669 c 0
 929 669 1000 723 1062 812 c 1
 1131 691 l 1
 1081 580 977 492 842 492 c 0x80
 759 492 687 521 600 561 c 0
 515 601 451 630 381 630 c 0
 295 630 225 560 183 480 c 1x40
EndSplineSet
EndChar

StartChar: asterisk
Encoding: 42 42 161
Width: 1148
VWidth: 0
Flags: W
LayerCount: 2
Fore
SplineSet
398 535 m 1
 216 642 l 1
 452 957 l 1
 109 1036 l 1
 167 1238 l 1
 504 1094 l 1
 470 1490 l 1
 678 1490 l 1
 644 1094 l 1
 983 1238 l 1
 1041 1036 l 1
 694 957 l 1
 735 903 890 699 933 642 c 1
 907 625 780 551 754 534 c 1
 571 871 l 1
 398 535 l 1
EndSplineSet
EndChar

StartChar: at
Encoding: 64 64 162
Width: 1880
VWidth: 0
Flags: W
HStem: -151 133<678.126 1218.8> 261 119<767.511 989.513 1287.9 1475.56> 1005 113<871.34 1143.97> 1388 134<741.641 1240.25>
VStem: 128 160<392.215 916.852> 553 157<441.031 817.547> 1609 143<549.408 1029.61>
LayerCount: 2
Fore
SplineSet
874 380 m 0
 1026 380 1074 536 1106 736 c 0
 1108 750 1133 899 1147 987 c 1
 1102 997 1046 1005 1011 1005 c 0
 824 1005 710 812 710 610 c 0
 710 469 766 380 874 380 c 0
921 -151 m 0
 452 -151 128 156 128 655 c 0
 128 1154 491 1522 988 1522 c 0
 1417 1522 1752 1240 1752 792 c 0
 1752 443 1547 265 1376 265 c 0
 1246 265 1169 348 1139 479 c 1
 1090 371 998 261 857 261 c 0
 655 261 553 415 553 613 c 0
 553 863 711 1118 995 1118 c 0
 1091 1118 1230 1090 1316 1046 c 1
 1288 841 1251 654 1251 529 c 0
 1251 446 1301 386 1376 386 c 0
 1493 386 1609 526 1609 800 c 0
 1609 1105 1409 1388 981 1388 c 0
 546 1388 288 1039 288 651 c 0
 288 278 516 -18 924 -18 c 0
 1088 -18 1258 24 1390 100 c 1
 1433 -18 l 1
 1305 -106 1112 -151 921 -151 c 0
EndSplineSet
EndChar

StartChar: b
Encoding: 98 98 164
Width: 1160
VWidth: 0
Flags: W
HStem: -18 174<471.509 736.778> 0 21G<128 317.138> 927 174<475.795 742.31>
VStem: 128 222<285.707 804.939 929 1540> 128 187<0 134.084> 852 226<288.894 797.293>
LayerCount: 2
Fore
SplineSet
648 -18 m 0xb4
 506 -18 397 52 332 159 c 1
 315 0 l 1
 128 0 l 1x6c
 128 1540 l 1
 350 1560 l 1
 350 1128 l 1
 347 929 l 1
 413 1041 518 1101 653 1101 c 0
 935 1101 1078 873 1078 546 c 0
 1078 209 925 -18 648 -18 c 0xb4
603 156 m 0xa4
 768 156 852 289 852 545 c 0
 852 799 775 927 609 927 c 0
 437 927 346 807 345 558 c 1
 345 279 442 156 603 156 c 0xa4
EndSplineSet
EndChar

StartChar: backslash
Encoding: 92 92 165
Width: 894
VWidth: 0
Flags: W
HStem: 0 21G<616.19 818>
LayerCount: 2
Fore
SplineSet
623 0 m 1
 115 1492 l 1
 313 1492 l 1
 818 0 l 1
 623 0 l 1
EndSplineSet
EndChar

StartChar: bar
Encoding: 124 124 166
Width: 499
VWidth: 0
Flags: W
VStem: 179 177<-317 1520>
LayerCount: 2
Fore
SplineSet
179 -317 m 1
 179 1520 l 1
 356 1520 l 1
 356 -317 l 1
 179 -317 l 1
EndSplineSet
EndChar

StartChar: braceleft
Encoding: 123 123 167
Width: 738
VWidth: 0
Flags: W
HStem: -269 177<532.292 664> 535 189<75 227.861> 1358 180<527.26 664>
VStem: 283 210<-54.6582 480.266 778.018 1325.74>
LayerCount: 2
Fore
SplineSet
664 -269 m 1
 404 -269 283 -180 283 53 c 2
 283 291 l 2
 283 453 253 534 75 535 c 1
 75 724 l 1
 256 725 283 804 283 966 c 2
 283 1233 l 2
 283 1454 416 1538 664 1538 c 1
 664 1358 l 1
 525 1356 493 1311 493 1164 c 2
 493 898 l 1
 492 756 441 680 313 627 c 1
 435 592 493 513 493 368 c 2
 493 101 l 2
 493 -44 523 -90 664 -92 c 1
 664 -269 l 1
EndSplineSet
EndChar

StartChar: braceright
Encoding: 125 125 168
Width: 738
VWidth: 0
Flags: W
HStem: -269 177<98 236.073> 537 189<532.988 687> 1359 179<98 229.153>
VStem: 268 209<-60.4727 481.545 780.318 1321.39>
LayerCount: 2
Fore
SplineSet
98 -269 m 1
 98 -92 l 1
 237 -90 268 -47 268 101 c 2
 268 368 l 2
 268 499 321 580 449 632 c 1
 323 676 269 773 268 899 c 1
 268 1164 l 2
 268 1309 239 1357 98 1359 c 1
 98 1538 l 1
 357 1538 477 1449 477 1212 c 2
 477 967 l 2
 477 805 505 728 687 726 c 1
 687 537 l 1
 511 537 477 456 477 293 c 2
 477 31 l 2
 477 -188 350 -269 98 -269 c 1
EndSplineSet
EndChar

StartChar: bracketleft
Encoding: 91 91 169
Width: 735
VWidth: 0
Flags: W
HStem: -175 166<419 660> 1330 166<419 660>
VStem: 205 455<-175 -9 1330 1496> 205 214<-9 1330>
LayerCount: 2
Fore
SplineSet
205 -175 m 1xe0
 205 1496 l 1
 660 1496 l 1
 660 1330 l 1xe0
 419 1330 l 1
 419 -9 l 1xd0
 660 -9 l 1
 660 -175 l 1
 205 -175 l 1xe0
EndSplineSet
EndChar

StartChar: bracketright
Encoding: 93 93 170
Width: 736
VWidth: 0
Flags: W
HStem: -175 166<106 347> 1329 167<106 347>
VStem: 106 454<-175 -9 1329 1496> 347 213<-9 1329>
LayerCount: 2
Fore
SplineSet
106 -175 m 1xe0
 106 -9 l 1xe0
 347 -9 l 1
 347 1329 l 1xd0
 106 1329 l 1
 106 1496 l 1
 560 1496 l 1
 560 -175 l 1
 106 -175 l 1xe0
EndSplineSet
EndChar

StartChar: breve
Encoding: 728 728 171
Width: 684
VWidth: 0
Flags: W
HStem: 1209 143<241.082 441.899>
VStem: 75 148<1370 1466> 461 147<1369.62 1466>
LayerCount: 2
Fore
SplineSet
341 1209 m 0
 193 1209 75 1289 75 1466 c 1
 223 1466 l 1
 223 1384 266 1352 341 1352 c 0
 416 1352 461 1384 461 1466 c 1
 608 1466 l 1
 608 1288 490 1209 341 1209 c 0
EndSplineSet
EndChar

StartChar: brokenbar
Encoding: 166 166 172
Width: 564
VWidth: 0
Flags: W
HStem: -303 21G<211 388>
VStem: 211 177<-303 420 788 1509>
LayerCount: 2
Fore
SplineSet
211 788 m 1
 211 1509 l 1
 388 1509 l 1
 388 788 l 1
 211 788 l 1
211 -303 m 1
 211 420 l 1
 388 420 l 1
 388 -303 l 1
 211 -303 l 1
EndSplineSet
EndChar

StartChar: bullet
Encoding: 8226 8226 173
Width: 870
VWidth: 0
Flags: W
HStem: 379 680<293.249 622.751>
VStem: 122 672<551.726 885.949>
LayerCount: 2
Fore
SplineSet
455 379 m 0
 270 379 122 514 122 716 c 0
 122 920 276 1059 461 1059 c 0
 645 1059 794 925 794 721 c 0
 794 518 640 379 455 379 c 0
EndSplineSet
EndChar

StartChar: c
Encoding: 99 99 174
Width: 1057
VWidth: 0
Flags: W
HStem: -18 173<450.193 749.371> 927 174<456.515 758.102>
VStem: 84 226<308.517 765.283>
LayerCount: 2
Fore
SplineSet
871 340 m 1
 999 239 l 1
 989 195 860 -18 589 -18 c 0
 284 -18 84 194 84 543 c 0
 84 895 300 1101 589 1101 c 0
 832 1101 950 960 992 855 c 1
 869 744 l 1
 856 766 790 927 615 927 c 0
 425 927 310 790 310 541 c 0
 310 308 402 155 604 155 c 0
 742 155 845 265 871 340 c 1
EndSplineSet
EndChar

StartChar: caron
Encoding: 711 711 176
Width: 733
VWidth: 0
Flags: W
HStem: 1095 373
VStem: 33 657
LayerCount: 2
Fore
SplineSet
261 1095 m 1
 33 1468 l 1
 208 1468 l 1
 351 1242 l 1
 512 1468 l 1
 690 1468 l 1
 458 1095 l 1
 261 1095 l 1
EndSplineSet
EndChar

StartChar: cedilla
Encoding: 184 184 181
Width: 550
VWidth: 0
Flags: W
HStem: -398 408<192 269>
VStem: 83 235
LayerCount: 2
Fore
SplineSet
83 -398 m 1
 192 10 l 1
 318 10 l 1
 269 -398 l 1
 83 -398 l 1
EndSplineSet
EndChar

StartChar: cent
Encoding: 162 162 182
Width: 982
VWidth: 0
Flags: W
HStem: -278 21G<526.047 616.249> -18 173<450.193 749.371> 927 174<456.515 758.102>
VStem: 84 226<308.517 765.283> 528 86<-278 -150.485> 543 86<1248.11 1376>
LayerCount: 2
Fore
SplineSet
629 1376 m 1xf4
 662 1037 l 1
 505 1037 l 1
 543 1376 l 1
 629 1376 l 1xf4
528 -278 m 1xf8
 495 60 l 1
 652 60 l 1
 614 -278 l 1
 528 -278 l 1xf8
EndSplineSet
Refer: 174 99 N 1 0 0 1 0 0 2
EndChar

StartChar: circumflex
Encoding: 710 710 183
Width: 735
VWidth: 0
Flags: W
HStem: 1152 315
VStem: 41 642
LayerCount: 2
Fore
SplineSet
41 1152 m 1
 263 1467 l 1
 465 1467 l 1
 683 1152 l 1
 521 1152 l 1
 357 1314 l 1
 201 1152 l 1
 41 1152 l 1
EndSplineSet
EndChar

StartChar: colon
Encoding: 58 58 184
Width: 605
VWidth: 0
Flags: W
HStem: -6 280<212.5 412.125> 820 280<211.875 411.125>
VStem: 175 274<29.1646 238.312 857.079 1063.98>
LayerCount: 2
Fore
SplineSet
313 -6 m 0
 230 -6 175 59 175 133 c 0
 175 207 229 274 313 274 c 0
 396 274 449 207 449 133 c 0
 449 60 396 -6 313 -6 c 0
312 820 m 0
 229 820 174 885 174 959 c 0
 174 1032 228 1100 312 1100 c 0
 395 1100 448 1032 448 959 c 0
 448 886 395 820 312 820 c 0
EndSplineSet
EndChar

StartChar: comma
Encoding: 44 44 185
Width: 462
VWidth: 0
Flags: W
HStem: -352 611<179 268.515>
VStem: 107 151<-352 -178.24> 179 213<25.0996 259>
LayerCount: 2
Fore
SplineSet
107 -352 m 1xc0
 107 -352 179 226 179 259 c 1
 397 259 l 1
 392 208 l 1xa0
 392 195 258 -352 258 -352 c 1
 107 -352 l 1xc0
EndSplineSet
EndChar

StartChar: copyright
Encoding: 169 169 186
Width: 1675
VWidth: 0
Flags: W
HStem: -12 106<601.049 1074.47> 253 122<684.977 1043.11> 1141 123<681.414 1029.89> 1428 107<600.378 1073.59>
VStem: 69 122<517.686 1009.13> 369 146<556.321 960.911> 1486 121<517.447 1008.51>
LayerCount: 2
Fore
SplineSet
837 -12 m 0
 438 -12 69 284 69 764 c 0
 69 1243 437 1535 836 1535 c 0
 1238 1535 1607 1242 1607 764 c 0
 1607 284 1239 -12 837 -12 c 0
837 94 m 0
 1193 94 1486 363 1486 763 c 0
 1486 1162 1192 1428 836 1428 c 0
 484 1428 191 1163 191 764 c 0
 191 363 484 94 837 94 c 0
838 253 m 0
 575 253 369 463 369 757 c 0
 369 1042 568 1264 834 1264 c 0
 945 1264 1047 1236 1132 1177 c 1
 1080 1069 l 1
 1008 1118 915 1141 842 1141 c 0
 651 1141 515 988 515 760 c 0
 515 525 652 375 848 375 c 0
 924 375 1012 396 1088 444 c 1
 1134 338 l 1
 1051 283 949 253 838 253 c 0
EndSplineSet
EndChar

StartChar: currency
Encoding: 164 164 187
Width: 1152
VWidth: 0
Flags: W
HStem: 314 129<451.301 751.001> 1025 129<451.713 748.44>
VStem: 192 130<575.937 891.181> 880 128<574.201 891.403>
LayerCount: 2
Fore
SplineSet
600 443 m 0
 764 443 880 573 880 733 c 0
 880 892 762 1025 600 1025 c 0
 439 1025 322 892 322 733 c 0
 322 573 439 443 600 443 c 0
1029 227 m 1
 848 401 l 1
 779 346 694 314 600 314 c 0
 505 314 420 344 350 400 c 1
 174 228 l 1
 86 316 l 1
 266 492 l 1
 219 561 192 644 192 733 c 0
 192 821 218 902 266 974 c 1
 85 1152 l 1
 174 1240 l 1
 351 1067 l 1
 420 1121 507 1154 600 1154 c 0
 694 1154 778 1123 848 1066 c 1
 1029 1240 l 1
 1113 1150 l 1
 934 974 l 1
 981 903 1008 821 1008 733 c 0
 1008 643 983 562 935 492 c 1
 1112 317 l 1
 1029 227 l 1
EndSplineSet
EndChar

StartChar: d
Encoding: 100 100 188
Width: 1160
VWidth: 0
Flags: W
HStem: -18 174<415.776 701.174> 0 21G<843.633 1027> 927 174<428.188 709.531>
VStem: 84 226<285.746 788.441> 803 224<261.685 822.629 965 1540> 846 181<0 121.139>
LayerCount: 2
Fore
SplineSet
560 156 m 0xb0
 738 156 811 281 812 530 c 1
 812 814 734 927 571 927 c 0
 407 927 310 815 310 544 c 0
 310 279 386 156 560 156 c 0xb0
810 965 m 1
 803 1135 l 1
 803 1540 l 1xb8
 1027 1560 l 1
 1027 0 l 1
 846 0 l 1x74
 826 169 l 1
 773 57 684 -18 517 -18 c 0
 234 -18 84 203 84 548 c 0
 84 876 239 1101 516 1101 c 0
 665 1101 751 1047 810 965 c 1
EndSplineSet
EndChar

StartChar: dagger
Encoding: 8224 8224 189
Width: 896
VWidth: 0
Flags: W
HStem: 977 157<83 380 543 853>
VStem: 380 160<114 977 1134 1493>
LayerCount: 2
Fore
SplineSet
380 114 m 1
 380 977 l 1
 83 977 l 1
 83 1134 l 1
 380 1134 l 1
 380 1493 l 1
 543 1493 l 1
 543 1134 l 1
 853 1134 l 1
 853 977 l 1
 540 977 l 1
 540 114 l 1
 380 114 l 1
EndSplineSet
EndChar

StartChar: daggerdbl
Encoding: 8225 8225 190
Width: 934
VWidth: 0
Flags: W
HStem: 407 143<122 393 559 825> 971 153<123 393 558 827>
VStem: 393 166<21 407 550 971 1124 1491>
LayerCount: 2
Fore
SplineSet
825 407 m 1
 559 407 l 1
 559 21 l 1
 393 21 l 1
 393 407 l 1
 122 407 l 1
 122 550 l 1
 393 550 l 1
 393 971 l 1
 123 971 l 1
 123 1124 l 1
 393 1124 l 1
 393 1491 l 1
 556 1491 l 1
 556 1124 l 1
 827 1124 l 1
 827 971 l 1
 558 971 l 1
 559 550 l 1
 825 550 l 1
 825 407 l 1
EndSplineSet
EndChar

StartChar: dcroat
Encoding: 273 273 192
Width: 1301
VWidth: 0
Flags: W
HStem: -18 174<415.776 701.174> 0 21<843.633 1027> 927 174<428.188 709.531> 1247 114<140 645>
VStem: 84 226<285.746 788.441> 803 224<261.685 822.629 965 1540> 846 181<0 121.139>
LayerCount: 2
Fore
SplineSet
140 1247 m 1x38
 140 1361 l 1
 645 1361 l 1
 645 1247 l 1
 140 1247 l 1x38
EndSplineSet
Refer: 188 100 N 1 0 0 1 0 0 2
EndChar

StartChar: degree
Encoding: 176 176 193
Width: 789
VWidth: 0
Flags: W
HStem: 895 127<282.288 508.174> 1370 125<282.95 507.248>
VStem: 87 141<1074.63 1316.86> 562 142<1075.49 1316.86>
LayerCount: 2
Fore
SplineSet
395 895 m 0
 212 895 87 1032 87 1199 c 0
 87 1366 214 1495 395 1495 c 0
 576 1495 704 1366 704 1199 c 0
 704 1036 580 895 395 895 c 0
395 1022 m 0
 485 1022 562 1089 562 1198 c 0
 562 1304 484 1370 396 1370 c 0
 306 1370 228 1304 228 1198 c 0
 228 1089 305 1022 395 1022 c 0
EndSplineSet
EndChar

StartChar: dieresis
Encoding: 168 168 194
Width: 719
VWidth: 0
Flags: W
HStem: 1192 280<37.5 237.125 482.5 682.125>
VStem: 0 274<1227.16 1436.31> 445 274<1227.16 1436.31>
LayerCount: 2
Fore
SplineSet
138 1192 m 0
 55 1192 0 1257 0 1331 c 0
 0 1405 54 1472 138 1472 c 0
 221 1472 274 1405 274 1331 c 0
 274 1258 221 1192 138 1192 c 0
719 1331 m 0
 719 1258 666 1192 583 1192 c 0
 500 1192 445 1257 445 1331 c 0
 445 1405 499 1472 583 1472 c 0
 666 1472 719 1405 719 1331 c 0
EndSplineSet
EndChar

StartChar: divide
Encoding: 247 247 195
Width: 1241
VWidth: 0
Flags: W
HStem: 25 253<497 740> 498 177<108 1128> 888 244<497 746>
VStem: 497 243<25 278 888 1132>
LayerCount: 2
Fore
SplineSet
497 888 m 1
 497 1132 l 1
 746 1132 l 1
 746 888 l 1
 497 888 l 1
108 498 m 1
 108 675 l 1
 1128 675 l 1
 1128 498 l 1
 108 498 l 1
497 25 m 1
 497 278 l 1
 740 278 l 1
 740 25 l 1
 497 25 l 1
EndSplineSet
EndChar

StartChar: dollar
Encoding: 36 36 196
Width: 1167
VWidth: 0
Flags: W
HStem: -278 21G<493 659.769> -17 202<384.299 742.044> 1282 198<407.609 761.895>
VStem: 91 236<973.531 1208.26> 493 166<-278 -199.846> 555 117<-18.1543 60> 826 241<260.173 508.232>
LayerCount: 2
Fore
SplineSet
493 -278 m 1xfa
 555 60 l 1
 672 60 l 1xf6
 659 -278 l 1
 493 -278 l 1xfa
718 1779 m 1
 661 1441 l 1
 538 1441 l 1
 556 1779 l 1
 718 1779 l 1
EndSplineSet
Refer: 102 83 N 1 0 0 1 0 0 2
EndChar

StartChar: dotaccent
Encoding: 729 729 197
Width: 435
VWidth: 0
Flags: W
HStem: 1255 210<126 313>
VStem: 126 187<1255 1465>
LayerCount: 2
Fore
SplineSet
126 1255 m 1
 126 1465 l 1
 313 1465 l 1
 313 1255 l 1
 126 1255 l 1
EndSplineSet
EndChar

StartChar: dotlessi
Encoding: 305 305 198
Width: 490
VWidth: 0
Flags: W
HStem: 0 21G<151 370>
VStem: 151 219<0 1109>
LayerCount: 2
Fore
SplineSet
151 0 m 1
 151 1109 l 1
 370 1109 l 1
 370 0 l 1
 151 0 l 1
EndSplineSet
EndChar

StartChar: e
Encoding: 101 101 199
Width: 1084
VWidth: 0
Flags: W
HStem: -18 174<465.577 876.491> 473 154<321 816> 933 168<450.359 719.628>
VStem: 89 228<312.387 473 627 781.718> 816 196<627 817.37>
LayerCount: 2
Fore
SplineSet
1012 586 m 0
 1012 527 1004 473 1004 473 c 1
 317 473 l 1
 334 228 489 156 655 156 c 0
 765 156 873 195 932 225 c 1
 979 72 l 1
 897 17 761 -18 625 -18 c 0
 326 -18 89 176 89 540 c 0
 89 879 301 1101 576 1101 c 0
 851 1101 1012 889 1012 586 c 0
321 627 m 1
 816 627 l 1
 807 825 730 933 591 933 c 0
 452 933 336 831 321 627 c 1
EndSplineSet
EndChar

StartChar: eight
Encoding: 56 56 207
Width: 1211
VWidth: 0
Flags: W
HStem: -20 168<436.878 784.451> 1339 174<444.359 770.062>
VStem: 113 232<236.102 550.445> 142 220<974.182 1259.89> 850 220<972.518 1261.82> 867 231<228.385 548.994>
LayerCount: 2
Fore
SplineSet
608 846 m 1xd8
 771 883 850 989 850 1136 c 0
 850 1263 757 1339 608 1339 c 0
 460 1339 362 1263 362 1136 c 0
 362 989 446 883 608 846 c 1xd8
608 148 m 0
 789 148 867 230 867 389 c 0
 867 546 766 660 608 699 c 1
 450 660 345 549 345 388 c 0xe4
 345 233 431 148 608 148 c 0
608 -20 m 0
 344 -20 113 117 113 384 c 0xe4
 113 576 220 717 382 786 c 1
 246 846 142 958 142 1133 c 0
 142 1380 349 1513 607 1513 c 0
 866 1513 1070 1380 1070 1133 c 0xd8
 1070 961 974 852 839 787 c 1
 993 721 1098 570 1098 384 c 0
 1098 117 872 -20 608 -20 c 0
EndSplineSet
EndChar

StartChar: ellipsis
Encoding: 8230 8230 208
Width: 1476
VWidth: 0
Flags: W
HStem: -12 268<147.446 349.87 638.97 841.393 1128.97 1331.92>
VStem: 116 264<18.743 224.948> 608 264<18.743 224.948> 1098 265<18.743 224.948>
LayerCount: 2
Fore
SplineSet
1230 -12 m 0
 1142 -12 1098 55 1098 122 c 0
 1098 188 1141 256 1230 256 c 0
 1319 256 1363 188 1363 122 c 0
 1363 55 1319 -12 1230 -12 c 0
740 -12 m 0
 652 -12 608 55 608 122 c 0
 608 188 651 256 740 256 c 0
 829 256 872 188 872 122 c 0
 872 55 829 -12 740 -12 c 0
249 -12 m 0
 161 -12 116 55 116 122 c 0
 116 188 160 256 249 256 c 0
 338 256 380 188 380 122 c 0
 380 55 338 -12 249 -12 c 0
EndSplineSet
EndChar

StartChar: emdash
Encoding: 8212 8212 210
Width: 2133
VWidth: 0
Flags: W
HStem: 484 175<69 2135>
LayerCount: 2
Fore
SplineSet
69 484 m 1
 69 659 l 1
 2135 659 l 1
 2135 484 l 1
 69 484 l 1
EndSplineSet
EndChar

StartChar: endash
Encoding: 8211 8211 211
Width: 1189
VWidth: 0
Flags: W
HStem: 484 175<96 1141>
LayerCount: 2
Fore
SplineSet
96 484 m 1
 96 659 l 1
 1141 659 l 1
 1141 484 l 1
 96 484 l 1
EndSplineSet
EndChar

StartChar: eng
Encoding: 331 331 212
Width: 1114
VWidth: 0
Flags: W
HStem: -327 186<632 806.254> 7 21G<147 377> 961 180<509.666 781.96>
VStem: 147 230<7 842.496> 147 191<1027.49 1116> 840 229<-114.101 896.424>
LayerCount: 2
Fore
SplineSet
632 -327 m 1xec
 612 -141 l 1
 665 -141 l 2
 824 -141 840 -107 840 90 c 2
 840 687 l 1
 839 860 804 961 653 961 c 0
 511 961 426 883 390 778 c 1
 380 723 377 656 377 582 c 2
 377 7 l 1
 147 7 l 1xf4
 147 1116 l 1
 338 1116 l 1
 361 974 l 1
 443 1076 552 1141 705 1141 c 0
 955 1141 1069 982 1069 696 c 2
 1069 142 l 1
 1068 -168 1015 -327 700 -327 c 2
 632 -327 l 1xec
EndSplineSet
EndChar

StartChar: equal
Encoding: 61 61 214
Width: 1217
VWidth: 0
Flags: W
HStem: 467 185<143 1074> 859 185<143 1074>
LayerCount: 2
Fore
SplineSet
143 467 m 1
 143 652 l 1
 1074 652 l 1
 1074 467 l 1
 143 467 l 1
143 859 m 1
 143 1044 l 1
 1074 1044 l 1
 1074 859 l 1
 143 859 l 1
EndSplineSet
EndChar

StartChar: eth
Encoding: 240 240 215
Width: 1169
VWidth: 0
Flags: W
HStem: -22 178<441.487 771.607> 800 162<428.506 733.638>
VStem: 83 213<304.079 661.066> 910 201<294.667 656.808>
LayerCount: 2
Fore
SplineSet
605 156 m 0
 803 156 910 286 910 484 c 0
 910 659 798 800 599 800 c 0
 405 800 296 671 296 483 c 0
 296 305 403 156 605 156 c 0
599 -22 m 0
 280 -22 83 199 83 482 c 0
 83 770 280 962 566 962 c 0
 653 962 717 929 764 903 c 1
 717 976 616 1098 516 1198 c 1
 268 1099 l 1
 210 1252 l 1
 404 1331 l 1
 196 1536 l 1
 455 1536 l 1
 583 1407 l 1
 858 1518 l 1
 918 1364 l 1
 694 1275 l 1
 839 1112 943 990 1016 859 c 0
 1073 756 1110 621 1111 478 c 1
 1111 177 924 -22 599 -22 c 0
EndSplineSet
EndChar

StartChar: exclam
Encoding: 33 33 216
Width: 613
VWidth: 0
Flags: W
HStem: -10 285<205.75 409.75>
VStem: 168 279<28.5414 239.219> 198 221<1133.35 1513>
LayerCount: 2
Fore
SplineSet
263 449 m 1xa0
 198 1327 l 1
 198 1513 l 1
 419 1513 l 1
 419 1327 l 1
 361 449 l 1
 263 449 l 1xa0
308 -10 m 0
 222 -10 168 59 168 133 c 0
 168 208 222 275 308 275 c 0
 394 275 447 208 447 133 c 0xc0
 447 58 394 -10 308 -10 c 0
EndSplineSet
EndChar

StartChar: f
Encoding: 102 102 218
Width: 719
VWidth: 0
Flags: W
HStem: 0 21G<211 435> 933 149<87.2577 211 435 691> 933 130<47 185.3> 1332 169<464.782 712.288>
VStem: 211 224<0 933 1082 1300.18>
LayerCount: 2
Fore
SplineSet
211 0 m 1xd8
 211 933 l 1xd8
 42 933 l 1
 47 1063 l 1xb8
 211 1080 l 1
 211 1127 l 2
 211 1421 347 1501 543 1501 c 0
 609 1501 681 1493 730 1483 c 1
 710 1319 l 1
 688 1323 626 1332 583 1332 c 0
 491 1332 435 1309 435 1145 c 2
 435 1082 l 1
 691 1082 l 1
 691 933 l 1
 435 933 l 1
 435 0 l 1
 211 0 l 1xd8
EndSplineSet
EndChar

StartChar: five
Encoding: 53 53 219
Width: 1217
VWidth: 0
Flags: W
HStem: -20 189<388.076 760.114> 763 174<479.751 781.155> 1309 184<467 1039>
VStem: 877 235<287.793 660.902>
LayerCount: 2
Fore
SplineSet
589 -20 m 0
 394 -20 209 76 155 114 c 1
 217 293 l 1
 262 263 448 169 595 169 c 0
 792 169 877 289 877 474 c 0
 877 637 809 763 644 763 c 0
 560 763 446 730 388 646 c 1
 217 672 l 1
 281 1493 l 1
 1055 1493 l 1
 1039 1309 l 1
 467 1309 l 1
 428 842 l 1
 480 916 560 937 683 937 c 0
 945 937 1112 738 1112 473 c 0
 1112 170 906 -20 589 -20 c 0
EndSplineSet
EndChar

StartChar: four
Encoding: 52 52 220
Width: 1217
VWidth: 0
Flags: W
HStem: 0 21G<742 966> 350 180<337 742 966 1130>
VStem: 742 224<0 350 533 1221>
LayerCount: 2
Fore
SplineSet
337 530 m 1
 742 530 l 1
 742 1221 l 1
 337 530 l 1
742 0 m 1
 742 350 l 1
 107 350 l 1
 107 531 l 1
 700 1489 l 1
 966 1489 l 1
 966 533 l 1
 1161 533 l 1
 1130 350 l 1
 966 350 l 1
 966 0 l 1
 742 0 l 1
EndSplineSet
EndChar

StartChar: fraction
Encoding: 8260 8260 221
Width: 1099
VWidth: 0
Flags: W
HStem: 0 21G<71 263.929>
LayerCount: 2
Fore
SplineSet
71 0 m 1
 905 1517 l 1
 1082 1517 l 1
 253 0 l 1
 71 0 l 1
EndSplineSet
EndChar

StartChar: g
Encoding: 103 103 222
Width: 1160
VWidth: 0
Flags: W
HStem: -461 177<238.513 714.817> -250 20G<204.919 259.5> 18 174<416.08 690.896> 927 174<420.403 697.513>
VStem: 84 226<314.935 802.352> 832 200<-162.5 209.603 337.974 772.215 953.819 1082>
LayerCount: 2
Fore
SplineSet
557 192 m 0
 746 192 818 308 818 552 c 0
 818 800 750 927 559 927 c 0
 362 927 310 756 310 553 c 0
 310 356 365 192 557 192 c 0
547 -461 m 0
 416 -461 314 -438 189 -403 c 1
 207 -230 l 1
 312 -263 416 -284 527 -284 c 0
 782 -284 832 -132 832 44 c 0
 832 101 829 161 826 212 c 1
 767 87 657 18 518 18 c 0
 233 18 84 231 84 546 c 0
 84 887 244 1101 519 1101 c 0
 656 1101 758 1042 815 930 c 1
 826 1082 l 1
 1032 1082 l 1
 1032 65 l 2
 1032 -229 907 -461 547 -461 c 0
EndSplineSet
EndChar

StartChar: germandbls
Encoding: 223 223 227
Width: 1190
VWidth: 0
Flags: W
HStem: -20 180<591.713 922.471> 0 21G<158 381> 1341 173<463.366 754.196>
VStem: 158 223<0 1249.34> 606 216<723.215 867.51> 807 206<1040.73 1286.78> 964 225<201.356 427.609>
LayerCount: 2
Fore
SplineSet
381 0 m 1x74
 158 0 l 1
 158 1040 l 2
 158 1335 304 1514 604 1514 c 0
 834 1514 1013 1401 1013 1183 c 0x74
 1013 945 822 873 822 790 c 0
 822 682 1189 621 1189 311 c 0
 1189 104 1057 -20 842 -20 c 0
 732 -20 610 9 507 54 c 1
 562 218 l 1
 610 193 708 160 802 160 c 0
 904 160 964 213 964 314 c 0
 964 513 606 572 606 767 c 0xba
 606 938 807 992 807 1178 c 0
 807 1275 735 1341 614 1341 c 0
 440 1341 381 1242 381 1039 c 2
 381 0 l 1x74
EndSplineSet
EndChar

StartChar: grave
Encoding: 96 96 228
Width: 544
VWidth: 0
Flags: W
HStem: 1058 411
VStem: 51 450
LayerCount: 2
Fore
SplineSet
360 1058 m 1
 51 1469 l 1
 316 1469 l 1
 501 1058 l 1
 360 1058 l 1
EndSplineSet
EndChar

StartChar: greater
Encoding: 62 62 229
Width: 1161
VWidth: 0
Flags: W
LayerCount: 2
Fore
SplineSet
147 166 m 1
 147 364 l 1
 848 686 l 1
 148 1044 l 1
 148 1235 l 1
 1088 737 l 1
 1088 623 l 1
 147 166 l 1
EndSplineSet
EndChar

StartChar: greaterequal
Encoding: 8805 8805 230
Width: 1139
VWidth: 0
Flags: W
HStem: 5 153<131 1064>
LayerCount: 2
Fore
SplineSet
131 5 m 1
 131 158 l 1
 1064 158 l 1
 1064 5 l 1
 131 5 l 1
148 225 m 1
 148 410 l 1
 847 756 l 1
 150 1123 l 1
 150 1306 l 1
 1053 809 l 1
 1053 703 l 1
 148 225 l 1
EndSplineSet
EndChar

StartChar: guillemotleft
Encoding: 171 171 231
Width: 982
VWidth: 0
Flags: W
LayerCount: 2
Fore
SplineSet
370 138 m 1
 68 561 l 1
 373 988 l 1
 549 988 l 1
 281 564 l 1
 543 138 l 1
 370 138 l 1
764 138 m 1
 462 561 l 1
 766 988 l 1
 942 988 l 1
 675 564 l 1
 937 138 l 1
 764 138 l 1
EndSplineSet
EndChar

StartChar: guillemotright
Encoding: 187 187 232
Width: 1029
VWidth: 0
Flags: W
LayerCount: 2
Fore
SplineSet
278 988 m 1
 580 565 l 1
 276 138 l 1
 101 138 l 1
 368 562 l 1
 105 988 l 1
 278 988 l 1
664 988 m 1
 967 565 l 1
 661 138 l 1
 488 138 l 1
 753 562 l 1
 493 988 l 1
 664 988 l 1
EndSplineSet
EndChar

StartChar: guilsinglleft
Encoding: 8249 8249 233
Width: 559
VWidth: 0
Flags: W
VStem: 67 464
LayerCount: 2
Fore
SplineSet
531 996 m 1
 258 574 l 1
 525 160 l 1
 344 160 l 1
 67 574 l 1
 350 996 l 1
 531 996 l 1
EndSplineSet
EndChar

StartChar: guilsinglright
Encoding: 8250 8250 234
Width: 563
VWidth: 0
Flags: W
VStem: 72 467
LayerCount: 2
Fore
SplineSet
72 160 m 1
 344 579 l 1
 78 996 l 1
 259 996 l 1
 539 578 l 1
 253 160 l 1
 72 160 l 1
EndSplineSet
EndChar

StartChar: h
Encoding: 104 104 235
Width: 1160
VWidth: 0
Flags: W
HStem: 0 21G<126 350 812 1036> 927 174<498.493 744.041>
VStem: 126 224<0 767.207 890 1539> 812 224<0 855.19>
LayerCount: 2
Fore
SplineSet
680 1101 m 0
 904 1101 1036 952 1036 671 c 2
 1036 0 l 1
 812 0 l 1
 812 654 l 2
 812 838 756 927 619 927 c 0
 420 927 350 721 350 551 c 2
 350 0 l 1
 126 0 l 1
 126 1539 l 1
 350 1560 l 1
 350 1158 l 1
 344 890 l 1
 413 1028 529 1101 680 1101 c 0
EndSplineSet
EndChar

StartChar: hbar
Encoding: 295 295 236
Width: 1135
VWidth: 0
Flags: W
HStem: 0 21G<156 369 860 1071> 956 176<514.156 797.108> 1246 136<63 156 369 643>
VStem: 156 213<0 830.08 980 1246 1382 1499> 860 211<0 885.815>
LayerCount: 2
Fore
SplineSet
156 0 m 1
 156 1246 l 1
 63 1246 l 1
 63 1382 l 1
 156 1382 l 1
 156 1499 l 1
 369 1520 l 1
 369 1382 l 1
 643 1382 l 1
 643 1246 l 1
 369 1246 l 1
 369 980 l 1
 457 1078 578 1132 727 1132 c 0
 943 1132 1071 984 1071 671 c 2
 1071 0 l 1
 860 0 l 1
 860 642 l 2
 860 858 828 956 670 956 c 0
 524 956 404 851 369 752 c 1
 369 0 l 1
 156 0 l 1
EndSplineSet
EndChar

StartChar: hungarumlaut
Encoding: 733 733 238
Width: 831
VWidth: 0
Flags: W
HStem: 1058 411
LayerCount: 2
Fore
SplineSet
396 1058 m 1
 620 1469 l 1
 832 1469 l 1
 520 1058 l 1
 396 1058 l 1
125 1058 m 1
 333 1469 l 1
 539 1469 l 1
 249 1058 l 1
 125 1058 l 1
EndSplineSet
EndChar

StartChar: hyphen
Encoding: 45 45 239
Width: 813
VWidth: 0
Flags: W
HStem: 467 185<116 697>
VStem: 116 581<467 652>
LayerCount: 2
Fore
SplineSet
116 467 m 1
 116 652 l 1
 697 652 l 1
 697 467 l 1
 116 467 l 1
EndSplineSet
EndChar

StartChar: i
Encoding: 105 105 240
Width: 537
VWidth: 0
Flags: W
HStem: 0 21G<157 377> 1248 266<159.726 374.583>
VStem: 137 260<1271.57 1490.43> 157 220<0 1082>
LayerCount: 2
Fore
SplineSet
157 0 m 1xd0
 157 1082 l 1
 377 1082 l 1
 377 0 l 1
 157 0 l 1xd0
267 1514 m 0
 356 1514 397 1470 397 1381 c 0
 397 1292 356 1248 267 1248 c 0
 179 1248 137 1292 137 1381 c 0xe0
 137 1470 179 1514 267 1514 c 0
EndSplineSet
EndChar

StartChar: infinity
Encoding: 8734 8734 248
Width: 1769
VWidth: 0
Flags: W
HStem: 252 129<336.5 611.942 1158.89 1428.05> 901 126<327.704 614.567 1155.59 1431.61>
VStem: 115 113<496.73 796.693> 1527 122<485.988 807.118>
LayerCount: 2
Fore
SplineSet
1298 381 m 0
 1453 381 1527 509 1527 669 c 0
 1527 795 1430 901 1294 901 c 0
 1156 901 1046 776 957 642 c 1
 1079 472 1172 381 1298 381 c 0
473 381 m 0
 605 381 720 499 814 640 c 1
 721 790 609 901 466 901 c 0
 319 901 228 782 228 642 c 0
 228 511 326 381 473 381 c 0
471 252 m 0
 246 252 115 442 115 664 c 0
 115 866 271 1027 467 1027 c 0
 637 1027 763 916 885 751 c 1
 999 911 1125 1027 1298 1027 c 0
 1523 1027 1649 867 1649 646 c 0
 1649 414 1494 252 1296 252 c 0
 1145 252 1021 342 885 527 c 1
 766 366 637 252 471 252 c 0
EndSplineSet
EndChar

StartChar: integral
Encoding: 8747 8747 249
Width: 733
VWidth: 0
Flags: W
HStem: -419 96<52 258.333> 1446 95<471.891 664.083>
VStem: 309 118<-273.134 1401.41>
LayerCount: 2
Fore
SplineSet
165 -419 m 0
 131 -419 94 -415 52 -406 c 1
 52 -310 l 1
 89 -319 122 -323 150 -323 c 0
 290 -323 309 -208 309 -42 c 2
 309 1171 l 2
 309 1417 373 1541 547 1541 c 0
 582 1541 621 1536 666 1526 c 1
 666 1430 l 1
 629 1440 599 1446 571 1446 c 0
 452 1446 427 1343 427 1180 c 2
 427 -34 l 2
 427 -284 350 -419 165 -419 c 0
EndSplineSet
EndChar

StartChar: j
Encoding: 106 106 252
Width: 566
VWidth: 0
Flags: W
HStem: -380 179<-2.14744 146.77> 1248 266<197.726 412.583>
VStem: 175 260<1271.57 1490.43> 195 220<-149.692 1082>
LayerCount: 2
Fore
SplineSet
-1 -380 m 1xd0
 -23 -201 l 1
 17 -197 l 2
 160 -183 195 -150 195 19 c 2
 195 1082 l 1
 415 1082 l 1
 415 30 l 2
 415 -277 348 -350 60 -375 c 1
 -1 -380 l 1xd0
305 1514 m 0
 394 1514 435 1470 435 1381 c 0
 435 1292 394 1248 305 1248 c 0
 217 1248 175 1292 175 1381 c 0xe0
 175 1470 217 1514 305 1514 c 0
EndSplineSet
EndChar

StartChar: k
Encoding: 107 107 254
Width: 1072
VWidth: 0
Flags: W
HStem: 0 21G<129 351 805.657 1084>
VStem: 129 222<0 381 586 1539>
LayerCount: 2
Fore
SplineSet
129 0 m 1
 129 1539 l 1
 351 1560 l 1
 351 800 l 1
 345 586 l 1
 787 1082 l 1
 1062 1082 l 1
 618 591 l 1
 1084 0 l 1
 821 0 l 1
 452 481 l 1
 351 381 l 1
 351 0 l 1
 129 0 l 1
EndSplineSet
EndChar

StartChar: kgreenlandic
Encoding: 312 312 256
Width: 1069
VWidth: 0
Flags: W
HStem: 0 21G<128 350 804.364 1083>
VStem: 128 222<0 375 581 1081>
LayerCount: 2
Fore
SplineSet
128 0 m 1
 128 1081 l 1
 350 1081 l 1
 350 800 l 1
 344 581 l 1
 786 1081 l 1
 1061 1081 l 1
 618 587 l 1
 1083 0 l 1
 820 0 l 1
 451 472 l 1
 350 375 l 1
 350 0 l 1
 128 0 l 1
EndSplineSet
EndChar

StartChar: l
Encoding: 108 108 257
Width: 630
VWidth: 0
Flags: W
HStem: -6 169<513 585>
VStem: 144 222<199.762 1539>
LayerCount: 2
Fore
SplineSet
515 -6 m 2
 253 -6 144 57 144 334 c 2
 144 1539 l 1
 366 1560 l 1
 366 316 l 2
 366 212 402 180 513 171 c 1
 598 163 l 1
 585 -6 l 1
 515 -6 l 2
EndSplineSet
EndChar

StartChar: less
Encoding: 60 60 262
Width: 1157
VWidth: 0
Flags: W
LayerCount: 2
Fore
SplineSet
1046 162 m 1
 107 623 l 1
 107 738 l 1
 1047 1231 l 1
 1047 1041 l 1
 343 686 l 1
 1045 359 l 2
 1046 358 1046 162 1046 162 c 1
EndSplineSet
EndChar

StartChar: lessequal
Encoding: 8804 8804 263
Width: 1141
VWidth: 0
Flags: W
HStem: 1 151<125 1062>
LayerCount: 2
Fore
SplineSet
125 1 m 1
 125 152 l 1
 1062 152 l 1
 1062 1 l 1
 125 1 l 1
1046 282 m 1
 144 731 l 1
 144 839 l 1
 1046 1305 l 1
 1046 1122 l 1
 372 786 l 1
 1046 467 l 1
 1046 282 l 1
EndSplineSet
EndChar

StartChar: logicalnot
Encoding: 172 172 264
Width: 1174
VWidth: 0
Flags: W
HStem: 655 175<94 905>
VStem: 905 170<251 655>
LayerCount: 2
Fore
SplineSet
905 251 m 1
 905 655 l 1
 94 655 l 1
 94 830 l 1
 1075 830 l 1
 1075 251 l 1
 905 251 l 1
EndSplineSet
EndChar

StartChar: lozenge
Encoding: 9674 9674 265
Width: 1127
VWidth: 0
Flags: W
LayerCount: 2
Fore
SplineSet
581 146 m 1
 689 348 801 551 908 752 c 1
 804 952 695 1154 592 1356 c 1
 484 1156 374 954 267 753 c 1
 371 552 475 346 581 146 c 1
523 -46 m 1
 99 751 l 1
 530 1552 l 1
 651 1552 l 1
 1076 752 l 1
 642 -46 l 1
 523 -46 l 1
EndSplineSet
EndChar

StartChar: m
Encoding: 109 109 266
Width: 1781
VWidth: 0
Flags: W
HStem: 0 21G<128 349 780 1001 1432 1653> 927 174<480.319 714.766 1135.46 1372.03>
VStem: 128 221<0 783.571> 128 182<968.507 1082> 780 221<0 769.485> 1432 221<0 858.504>
LayerCount: 2
Fore
SplineSet
128 0 m 1xec
 128 1082 l 1
 310 1082 l 1xdc
 334 892 l 1
 394 1023 506 1101 653 1101 c 0
 807 1101 908 1015 953 872 c 1
 1028 1035 1170 1101 1308 1101 c 0
 1539 1101 1653 958 1653 692 c 2
 1653 0 l 1
 1432 0 l 1
 1432 617 l 2
 1432 797 1410 927 1262 927 c 0
 1123 927 1001 782 1001 573 c 2
 1001 0 l 1
 780 0 l 1
 780 619 l 2
 780 828 732 927 599 927 c 0
 447 927 349 782 349 572 c 2
 349 0 l 1
 128 0 l 1xec
EndSplineSet
EndChar

StartChar: macron
Encoding: 175 175 267
Width: 929
VWidth: 0
Flags: W
HStem: 1310 153<133 786>
VStem: 133 653<1310 1463>
LayerCount: 2
Fore
SplineSet
133 1310 m 1
 133 1463 l 1
 786 1463 l 1
 786 1310 l 1
 133 1310 l 1
EndSplineSet
EndChar

StartChar: middot
Encoding: 65537 -1 268
Width: 405
VWidth: 0
Flags: W
HStem: 558 200<116 284>
VStem: 116 168<558 758>
LayerCount: 2
Fore
SplineSet
116 558 m 1
 116 758 l 1
 284 758 l 1
 284 558 l 1
 116 558 l 1
EndSplineSet
EndChar

StartChar: minus
Encoding: 8722 8722 269
Width: 1218
VWidth: 0
Flags: W
HStem: 491 175<108 1110>
LayerCount: 2
Fore
SplineSet
108 491 m 1
 108 666 l 1
 1110 666 l 1
 1110 491 l 1
 108 491 l 1
EndSplineSet
EndChar

StartChar: mu
Encoding: 956 956 270
Width: 1125
VWidth: 0
Flags: W
HStem: -18 174<420.611 702.198> 0 21<852.381 1034>
VStem: 109 224<-464 606> 123 224<232.589 1082> 810 224<260.662 1082> 855 179<0 109.475>
LayerCount: 2
Fore
SplineSet
109 606 m 1x20
 333 606 l 1
 333 -464 l 1
 109 -464 l 1
 109 606 l 1x20
EndSplineSet
Refer: 357 117 N 1 0 0 1 0 0 2
EndChar

StartChar: multiply
Encoding: 215 215 271
Width: 1103
VWidth: 0
Flags: W
LayerCount: 2
Fore
SplineSet
832 168 m 1
 553 461 l 1
 272 167 l 1
 154 294 l 1
 431 589 l 1
 158 883 l 1
 276 1008 l 1
 553 716 l 1
 827 1006 l 1
 948 881 l 1
 674 589 l 1
 723 539 950 296 950 296 c 1
 832 168 l 1
EndSplineSet
EndChar

StartChar: n
Encoding: 110 110 272
Width: 1160
VWidth: 0
Flags: W
HStem: 0 21G<126 350 811 1035> 927 174<481.872 742.929>
VStem: 126 224<0 781.798> 126 185<954.846 1082> 811 224<0 858.07>
LayerCount: 2
Fore
SplineSet
126 0 m 1xe8
 126 1082 l 1
 311 1082 l 1xd8
 334 878 l 1
 388 1004 479 1101 671 1101 c 0
 898 1101 1035 943 1035 661 c 2
 1035 0 l 1
 811 0 l 1
 811 643 l 2
 811 826 765 927 618 927 c 0
 436 927 350 762 350 572 c 2
 350 0 l 1
 126 0 l 1xe8
EndSplineSet
EndChar

StartChar: nine
Encoding: 57 57 277
Width: 1210
VWidth: 0
Flags: W
HStem: 0 21G<268 560.624> 597 161<463.803 748.904> 1326 187<478.264 806.067>
VStem: 126 232<869.421 1208.59> 912 229<882.493 1215.42>
LayerCount: 2
Fore
SplineSet
626 758 m 0
 783 758 912 853 912 1051 c 0
 912 1213 821 1326 642 1326 c 0
 460 1326 358 1210 358 1046 c 0
 358 875 442 758 626 758 c 0
126 1059 m 0
 126 1325 345 1513 632 1513 c 0
 941 1513 1141 1305 1141 1031 c 0
 1141 829 1048 691 935 532 c 0
 919 511 546 0 546 0 c 1
 268 0 l 1
 645 501 l 2
 664 528 710 587 751 641 c 1
 692 612 627 597 562 597 c 0
 348 597 126 757 126 1059 c 0
EndSplineSet
EndChar

StartChar: notequal
Encoding: 8800 8800 278
Width: 1179
VWidth: 0
Flags: W
HStem: 333 157<137 390 624 1095> 751 164<137 592 826 1093>
LayerCount: 2
Fore
SplineSet
415 44 m 1
 273 68 l 1
 390 333 l 1
 137 333 l 1
 128 491 l 1
 464 491 l 1
 592 751 l 1
 137 751 l 1
 126 915 l 1
 662 915 l 1
 797 1190 l 1
 940 1170 l 1
 826 915 l 1
 1093 915 l 1
 1105 750 l 1
 755 750 l 1
 624 490 l 1
 1095 490 l 1
 1105 333 l 1
 553 333 l 1
 415 44 l 1
EndSplineSet
EndChar

StartChar: numbersign
Encoding: 35 35 280
Width: 1227
VWidth: 0
Flags: W
HStem: -9 21G<236 379.731 616 759.774> 452 114<156 322 484 702 865 1038> 979 115<243 421 583 801 963 1125>
LayerCount: 2
Fore
SplineSet
616 -9 m 1
 702 452 l 1
 462 452 l 1
 376 -9 l 1
 236 -9 l 1
 322 452 l 1
 140 452 l 1
 156 566 l 1
 343 566 l 1
 421 979 l 1
 227 979 l 1
 243 1094 l 1
 442 1094 l 1
 514 1480 l 1
 656 1480 l 1
 583 1094 l 1
 823 1094 l 1
 895 1480 l 1
 1036 1480 l 1
 963 1094 l 1
 1142 1094 l 1
 1125 979 l 1
 942 979 l 1
 865 566 l 1
 1054 566 l 1
 1038 452 l 1
 843 452 l 1
 756 -9 l 1
 616 -9 l 1
723 566 m 1
 801 979 l 1
 562 979 l 1
 484 566 l 1
 723 566 l 1
EndSplineSet
EndChar

StartChar: o
Encoding: 111 111 281
Width: 1160
VWidth: 0
Flags: W
HStem: -18 174<433.209 726.791> 927 174<430.161 729.839>
VStem: 84 226<299.88 785.532> 850 226<299.88 785.532>
LayerCount: 2
Fore
SplineSet
580 -18 m 0
 270 -18 84 205 84 543 c 0
 84 882 269 1101 580 1101 c 0
 891 1101 1076 882 1076 543 c 0
 1076 205 890 -18 580 -18 c 0
580 156 m 0
 766 156 850 302 850 543 c 0
 850 784 766 927 580 927 c 0
 394 927 310 784 310 543 c 0
 310 302 394 156 580 156 c 0
EndSplineSet
EndChar

StartChar: ogonek
Encoding: 731 731 287
Width: 542
VWidth: 0
Flags: W
HStem: -430 139<285.925 475.98> -281 20G<467 475.746> -11 20G<260.5 406>
VStem: 109 168<-282.383 -122.491>
LayerCount: 2
Fore
SplineSet
480 -395 m 1
 432 -415 368 -430 310 -430 c 0
 192 -430 109 -371 109 -260 c 0
 109 -134 216 -34 305 9 c 1
 406 9 l 1
 335 -46 277 -145 277 -213 c 0
 277 -259 310 -291 353 -291 c 0
 404 -291 459 -269 475 -261 c 1
 480 -395 l 1
EndSplineSet
EndChar

StartChar: one
Encoding: 49 49 293
Width: 1210
VWidth: 0
Flags: W
HStem: 0 184<197 563 803 1123> 1157 185<202 350.869>
VStem: 563 240<184 1275>
LayerCount: 2
Fore
SplineSet
197 0 m 1
 197 184 l 1
 563 184 l 1
 563 1275 l 1
 472 1224 308 1173 202 1157 c 1
 202 1342 l 1
 310 1369 509 1433 590 1492 c 1
 803 1492 l 1
 803 184 l 1
 1123 184 l 1
 1123 0 l 1
 197 0 l 1
EndSplineSet
EndChar

StartChar: onehalf
Encoding: 189 189 294
Width: 1647
VWidth: 0
Flags: W
HStem: -20 138<1278 1590> 0 21G<289 482.766> 597 144<77 223 398 535> 711 148<1170.55 1412.05>
VStem: 223 175<741 1313> 1444 163<478.711 678.433>
LayerCount: 2
Fore
SplineSet
1049 -20 m 1x9c
 1049 115 l 1
 1122 191 1444 448 1444 580 c 0
 1444 666 1379 711 1313 711 c 0
 1240 711 1161 678 1111 609 c 1
 1034 716 l 1
 1092 809 1203 859 1324 859 c 0
 1468 859 1607 762 1607 587 c 0
 1607 395 1464 283 1278 118 c 1
 1603 118 l 1
 1590 -20 l 1
 1049 -20 l 1x9c
289 0 m 1x4c
 1247 1493 l 1
 1423 1493 l 1
 470 0 l 1
 289 0 l 1x4c
77 597 m 1x2c
 77 741 l 1
 223 741 l 1
 223 1313 l 1
 186 1292 78 1243 63 1238 c 1
 63 1383 l 1
 109 1403 229 1467 263 1493 c 1
 398 1493 l 1
 398 741 l 1
 535 741 l 1
 535 597 l 1
 77 597 l 1x2c
EndSplineSet
EndChar

StartChar: onequarter
Encoding: 188 188 295
Width: 1581
VWidth: 0
Flags: W
HStem: 0 21G<289 482.775 1311 1463> 184 128<1094 1311 1463 1571> 597 144<77 223 398 535>
VStem: 223 175<741 1312> 1311 152<0 184 312 665>
LayerCount: 2
Fore
SplineSet
1094 312 m 1
 1311 312 l 1
 1311 665 l 1
 1094 312 l 1
289 0 m 1
 1247 1492 l 1
 1423 1492 l 1
 470 0 l 1
 289 0 l 1
1311 0 m 1
 1311 184 l 1
 927 184 l 1
 927 309 l 1
 1301 867 l 1
 1463 867 l 1
 1463 312 l 1
 1576 312 l 1
 1571 184 l 1
 1463 184 l 1
 1463 0 l 1
 1311 0 l 1
77 597 m 1
 77 741 l 1
 223 741 l 1
 223 1312 l 1
 186 1292 78 1243 63 1238 c 1
 63 1383 l 1
 109 1402 229 1467 263 1492 c 1
 398 1492 l 1
 398 741 l 1
 535 741 l 1
 535 597 l 1
 77 597 l 1
EndSplineSet
EndChar

StartChar: onesuperior
Encoding: 65538 -1 296
Width: 780
VWidth: 0
Flags: W
HStem: 598 111<239 393 531 670>
VStem: 393 138<709 1336>
LayerCount: 2
Fore
SplineSet
239 598 m 1
 239 709 l 1
 393 709 l 1
 393 1336 l 1
 356 1312 263 1275 229 1262 c 1
 229 1376 l 1
 265 1389 379 1439 421 1479 c 1
 531 1479 l 1
 531 709 l 1
 670 709 l 1
 670 598 l 1
 239 598 l 1
EndSplineSet
EndChar

StartChar: ordmasculine
Encoding: 186 186 298
Width: 844
VWidth: 0
Flags: W
HStem: 715 147<308.529 544.761> 1370 147<308.744 536.44>
VStem: 65 177<930.042 1300.38> 607 170<930.084 1295.86>
LayerCount: 2
Fore
SplineSet
777 1114 m 0
 777 891 640 715 421 715 c 0
 190 715 65 889 65 1114 c 0
 65 1342 190 1517 421 1517 c 0
 658 1517 777 1345 777 1114 c 0
242 1114 m 0
 242 948 303 862 421 862 c 0
 547 862 607 947 607 1111 c 0
 607 1279 542 1370 421 1370 c 0
 304 1370 242 1282 242 1114 c 0
EndSplineSet
EndChar

StartChar: oslash
Encoding: 248 248 299
Width: 1197
VWidth: 0
Flags: W
HStem: -152 21G<265.444 307.676> -18 174<433.209 726.791> 927 174<430.161 729.839>
VStem: 84 226<299.88 785.532> 850 226<299.88 785.532>
LayerCount: 2
Fore
SplineSet
297 -152 m 1
 226 -107 l 1
 954 1268 l 1
 1031 1223 l 1
 297 -152 l 1
EndSplineSet
Refer: 281 111 N 1 0 0 1 0 0 2
EndChar

StartChar: p
Encoding: 112 112 302
Width: 1160
VWidth: 0
Flags: W
HStem: -18 174<471.269 735.268> 927 174<474.173 743.228>
VStem: 128 224<-449 154 282.661 811.373> 128 185<963.572 1082> 850 226<290.292 803.864>
LayerCount: 2
Fore
SplineSet
601 156 m 0xc8
 766 156 850 290 850 545 c 0
 850 796 774 927 607 927 c 0
 429 927 350 805 349 562 c 1
 349 287 429 156 601 156 c 0xc8
128 -449 m 1xe8
 128 1082 l 1
 313 1082 l 1xd8
 336 892 l 1
 405 1051 528 1101 659 1101 c 0
 932 1101 1076 865 1076 543 c 0
 1076 217 914 -18 634 -18 c 0
 500 -18 404 53 347 154 c 1
 352 -36 l 1
 352 -449 l 1
 128 -449 l 1xe8
EndSplineSet
EndChar

StartChar: paragraph
Encoding: 182 182 303
Width: 1090
VWidth: 0
Flags: W
HStem: 1369 157<595 763 916 993>
VStem: 84 511<1016.04 1356.11> 443 152<-50 861> 763 153<-50 1369>
LayerCount: 2
Fore
SplineSet
443 -50 m 1xb0
 443 861 l 1xb0
 208 861 84 1002 84 1188 c 0xd0
 84 1407 246 1526 547 1526 c 2
 993 1526 l 1
 993 1369 l 1
 916 1369 l 1
 916 -50 l 1
 763 -50 l 1
 763 1369 l 1
 595 1369 l 1
 595 -50 l 1
 443 -50 l 1xb0
EndSplineSet
EndChar

StartChar: parenleft
Encoding: 40 40 304
Width: 727
VWidth: 0
Flags: W
HStem: -186 21G<376.5 668>
VStem: 188 218<344.183 1062.85>
LayerCount: 2
Fore
SplineSet
459 -186 m 1
 294 51 188 353 188 708 c 0
 188 1052 300 1362 458 1587 c 1
 670 1587 l 1
 529 1371 406 1043 406 711 c 0
 406 384 503 90 668 -186 c 1
 459 -186 l 1
EndSplineSet
EndChar

StartChar: parenright
Encoding: 41 41 305
Width: 734
VWidth: 0
Flags: W
HStem: -186 21G<103 392>
VStem: 366 219<352.162 1077.27>
LayerCount: 2
Fore
SplineSet
103 -186 m 1
 242 26 366 378 366 721 c 0
 366 1037 271 1307 104 1587 c 1
 314 1587 l 1
 481 1342 585 1063 585 722 c 0
 585 364 470 30 314 -186 c 1
 103 -186 l 1
EndSplineSet
EndChar

StartChar: partialdiff
Encoding: 8706 8706 306
Width: 1205
VWidth: 0
Flags: W
HStem: -28 149<387.824 657.121> 950 144<486.668 781.92> 1530 147<411.726 745.322>
VStem: 125 146<256.208 685.52> 924 151<915 1298.01>
LayerCount: 2
Fore
SplineSet
520 121 m 0
 735 121 878 390 910 717 c 1
 875 840 783 950 640 950 c 0
 434 950 271 724 271 458 c 0
 271 255 368 121 520 121 c 0
519 -28 m 0
 245 -28 125 186 125 459 c 0
 125 819 327 1094 614 1094 c 0
 751 1094 856 1030 923 915 c 1
 923 934 924 966 924 995 c 0
 924 1325 809 1530 594 1530 c 0
 492 1530 392 1485 312 1427 c 1
 299 1577 l 1
 382 1635 496 1677 618 1677 c 0
 914 1677 1075 1443 1075 931 c 0
 1075 459 911 -28 519 -28 c 0
EndSplineSet
EndChar

StartChar: percent
Encoding: 37 37 307
Width: 1855
VWidth: 0
Flags: W
HStem: -20 147<1304.16 1540.48> 0 21G<412 615.172> 633 143<1304.87 1542.62> 717 147<319.161 555.485> 1370 143<319.868 557.619>
VStem: 72 174<939.091 1294.18> 625 173<939.653 1300.1> 1057 174<202.464 557.37> 1610 173<203.026 559.18>
LayerCount: 2
Fore
SplineSet
412 0 m 1x4f80
 1255 1493 l 1
 1438 1493 l 1
 604 0 l 1
 412 0 l 1x4f80
434 717 m 0x1f80
 195 717 72 892 72 1116 c 0
 72 1341 199 1513 434 1513 c 0
 674 1513 798 1344 798 1116 c 0
 798 892 671 717 434 717 c 0x1f80
437 864 m 0
 571 864 625 976 625 1119 c 0
 625 1266 570 1370 437 1370 c 0
 302 1370 246 1261 246 1119 c 0
 246 973 302 864 437 864 c 0
1422 127 m 0xaf80
 1556 127 1610 240 1610 382 c 0
 1610 529 1555 633 1422 633 c 0
 1287 633 1231 524 1231 382 c 0
 1231 237 1287 127 1422 127 c 0xaf80
1419 -20 m 0
 1180 -20 1057 155 1057 380 c 0
 1057 604 1184 776 1419 776 c 0
 1659 776 1783 608 1783 380 c 0
 1783 155 1656 -20 1419 -20 c 0
EndSplineSet
EndChar

StartChar: period
Encoding: 46 46 308
Width: 572
VWidth: 0
Flags: W
HStem: -6 280<186.5 386.125>
VStem: 149 274<29.1646 238.312>
LayerCount: 2
Fore
SplineSet
287 -6 m 0
 204 -6 149 59 149 133 c 0
 149 207 203 274 287 274 c 0
 370 274 423 207 423 133 c 0
 423 60 370 -6 287 -6 c 0
EndSplineSet
EndChar

StartChar: periodcentered
Encoding: 183 183 309
Width: 405
VWidth: 0
Flags: W
HStem: 558 167<116 284>
VStem: 116 168<558 725>
LayerCount: 2
Fore
SplineSet
116 558 m 1
 116 725 l 1
 284 725 l 1
 284 558 l 1
 116 558 l 1
EndSplineSet
EndChar

StartChar: perthousand
Encoding: 8240 8240 310
Width: 2323
VWidth: 0
Flags: W
HStem: -30 126<993.312 1227.24 1755.65 1995.29> 620 127<995.071 1231.43 1758.53 1998.49> 808 126<313.338 511.059> 1461 122<314.795 514.027>
VStem: 118 129<1005.02 1386.25> 580 128<1007.56 1389.42> 782 131<182.234 532.368> 1308 127<185.86 536.014> 1550 127<182.234 532.368> 2078 124<185.463 529.817>
LayerCount: 2
Fore
SplineSet
1874 -30 m 0
 1658 -30 1550 127 1550 360 c 0
 1550 581 1659 747 1880 747 c 0
 2098 747 2202 598 2202 357 c 0
 2202 138 2093 -30 1874 -30 c 0
1880 96 m 0
 2012 96 2078 218 2078 360 c 0
 2078 506 2008 620 1877 620 c 0
 1741 620 1677 501 1677 360 c 0
 1677 211 1743 96 1880 96 c 0
1108 -30 m 0
 890 -30 782 127 782 360 c 0
 782 581 888 747 1110 747 c 0
 1332 747 1435 593 1435 357 c 0
 1435 138 1327 -30 1108 -30 c 0
1110 96 m 0
 1242 96 1308 220 1308 360 c 0
 1308 509 1246 620 1109 620 c 0
 977 620 913 501 913 360 c 0
 913 211 978 96 1110 96 c 0
268 -21 m 1
 1119 1571 l 1
 1275 1571 l 1
 403 -21 l 1
 268 -21 l 1
412 808 m 0
 223 808 118 965 118 1198 c 0
 118 1420 223 1583 414 1583 c 0
 607 1583 708 1432 708 1194 c 0
 708 975 600 808 412 808 c 0
416 934 m 0
 526 934 580 1055 580 1196 c 0
 580 1346 526 1461 412 1461 c 0
 300 1461 247 1339 247 1198 c 0
 247 1049 301 934 416 934 c 0
EndSplineSet
EndChar

StartChar: plus
Encoding: 43 43 311
Width: 1218
VWidth: 0
Flags: W
HStem: 566 170<137 524 698 1081>
VStem: 524 173<154 566 736 1144>
LayerCount: 2
Fore
SplineSet
524 154 m 1
 524 566 l 1
 137 566 l 1
 137 736 l 1
 525 736 l 1
 525 1144 l 1
 698 1144 l 1
 698 736 l 1
 1081 736 l 1
 1081 566 l 1
 697 566 l 1
 697 154 l 1
 524 154 l 1
EndSplineSet
EndChar

StartChar: plusminus
Encoding: 177 177 312
Width: 1218
VWidth: 0
Flags: W
HStem: 0 162<142 1076> 625 177<151 519 692 1057>
VStem: 519 173<243 625 802 1175>
LayerCount: 2
Fore
SplineSet
519 243 m 1
 519 625 l 1
 151 625 l 1
 151 802 l 1
 519 802 l 1
 519 1175 l 1
 692 1175 l 1
 692 802 l 1
 1057 802 l 1
 1057 625 l 1
 692 625 l 1
 692 243 l 1
 519 243 l 1
142 0 m 1
 142 162 l 1
 1076 162 l 1
 1076 0 l 1
 142 0 l 1
EndSplineSet
EndChar

StartChar: product
Encoding: 8719 8719 313
Width: 1456
VWidth: 0
Flags: W
HStem: 0 21G<149 325 1134 1310> 1361 157<325 1134>
VStem: 149 176<0 1361> 1134 176<0 1361>
LayerCount: 2
Fore
SplineSet
149 0 m 1
 149 1518 l 1
 1310 1518 l 1
 1310 0 l 1
 1134 0 l 1
 1134 1361 l 1
 325 1361 l 1
 325 0 l 1
 149 0 l 1
EndSplineSet
EndChar

StartChar: q
Encoding: 113 113 314
Width: 1160
VWidth: 0
Flags: W
HStem: -18 174<415.642 682.535> 927 174<416.579 678.582>
VStem: 83 226<284.346 800.377> 796 224<-437 157 276.966 813.946> 820 200<921.616 1082>
LayerCount: 2
Fore
SplineSet
544 156 m 0xe0
 723 156 800 281 801 544 c 0
 801 803 728 927 542 927 c 0
 385 927 309 795 309 544 c 0
 309 294 379 156 544 156 c 0xe0
796 -449 m 1xf0
 796 -19 l 1xf0
 800 157 l 1
 749 52 660 -18 505 -18 c 0
 232 -18 83 204 83 541 c 0
 83 880 234 1101 504 1101 c 0
 662 1101 748 1029 804 903 c 1
 820 1082 l 1
 1020 1082 l 1xe8
 1020 -437 l 1
 796 -449 l 1xf0
EndSplineSet
EndChar

StartChar: question
Encoding: 63 63 315
Width: 971
VWidth: 0
Flags: W
HStem: -10 285<284 484.5> 1290 223<249.71 535.247>
VStem: 246 275<28.5414 239.219> 590 255<976.463 1231.48>
LayerCount: 2
Fore
SplineSet
433 449 m 1
 331 449 l 1
 396 813 590 912 590 1113 c 1
 589 1230 503 1290 417 1290 c 0
 327 1290 246 1247 177 1206 c 1
 117 1394 l 1
 206 1473 330 1513 451 1513 c 0
 653 1513 845 1400 845 1167 c 0
 845 844 516 696 433 449 c 1
385 -10 m 0
 301 -10 246 58 246 133 c 0
 246 208 300 275 385 275 c 0
 469 275 521 208 521 133 c 0
 521 58 469 -10 385 -10 c 0
EndSplineSet
EndChar

StartChar: quotedbl
Encoding: 34 34 317
Width: 763
VWidth: 0
Flags: W
HStem: 903 569<146 280 478 611>
VStem: 146 134<903 1069.47> 478 133<903 1066.14>
LayerCount: 2
Fore
SplineSet
146 903 m 1
 102 1472 l 1
 329 1472 l 1
 280 903 l 1
 146 903 l 1
478 903 m 1
 433 1472 l 1
 661 1472 l 1
 611 903 l 1
 478 903 l 1
EndSplineSet
EndChar

StartChar: quotedblbase
Encoding: 8222 8222 318
Width: 822
VWidth: 0
Flags: W
HStem: -250 489<-70 -21 236 285>
VStem: 137 602
LayerCount: 2
Fore
SplineSet
441 -250 m 1
 542 239 l 1
 739 239 l 1
 591 -250 l 1
 441 -250 l 1
137 -250 m 1
 236 239 l 1
 432 239 l 1
 285 -250 l 1
 137 -250 l 1
EndSplineSet
EndChar

StartChar: quotedblleft
Encoding: 8220 8220 319
Width: 728
VWidth: 0
Flags: W
HStem: 955 516
VStem: 91 637
LayerCount: 2
Fore
SplineSet
728 955 m 1
 508 955 l 1
 414 1471 l 1
 566 1471 l 1
 728 955 l 1
397 956 m 1
 180 956 l 1
 91 1471 l 1
 248 1471 l 1
 397 956 l 1
EndSplineSet
EndChar

StartChar: quotedblright
Encoding: 8221 8221 320
Width: 788
VWidth: 0
Flags: W
HStem: 904 568<180 246 506 563>
VStem: 89 638
LayerCount: 2
Fore
SplineSet
411 904 m 1
 506 1472 l 1
 727 1472 l 1
 563 904 l 1
 411 904 l 1
89 904 m 1
 180 1472 l 1
 397 1472 l 1
 246 904 l 1
 89 904 l 1
EndSplineSet
EndChar

StartChar: quoteleft
Encoding: 8216 8216 321
Width: 426
VWidth: 0
Flags: W
HStem: 960 511<210 291>
VStem: 85 279
LayerCount: 2
Fore
SplineSet
210 960 m 1
 85 1471 l 1
 291 1471 l 1
 364 960 l 1
 210 960 l 1
EndSplineSet
EndChar

StartChar: quoteright
Encoding: 8217 8217 322
Width: 422
VWidth: 0
Flags: W
HStem: 960 511<173 220>
VStem: 74 320
LayerCount: 2
Fore
SplineSet
74 960 m 1
 173 1471 l 1
 394 1471 l 1
 220 960 l 1
 74 960 l 1
EndSplineSet
EndChar

StartChar: quotesinglbase
Encoding: 8218 8218 323
Width: 475
VWidth: 0
Flags: W
HStem: -250 489<200 248>
VStem: 101 293
LayerCount: 2
Fore
SplineSet
101 -250 m 1
 200 239 l 1
 394 239 l 1
 248 -250 l 1
 101 -250 l 1
EndSplineSet
EndChar

StartChar: quotesingle
Encoding: 39 39 324
Width: 448
VWidth: 0
Flags: W
HStem: 855 618<167 293>
VStem: 167 126<855 997.898>
LayerCount: 2
Fore
SplineSet
167 855 m 1
 120 1473 l 1
 355 1473 l 1
 293 855 l 1
 167 855 l 1
EndSplineSet
EndChar

StartChar: r
Encoding: 114 114 325
Width: 709
VWidth: 0
Flags: W
HStem: 0 21G<128 352> 914 175<458.541 692>
VStem: 128 224<0 811.486> 128 185<965.592 1082>
LayerCount: 2
Fore
SplineSet
128 0 m 1xe0
 128 1082 l 1
 313 1082 l 1xd0
 338 879 l 1
 415 1056 508 1089 621 1089 c 0
 647 1089 672 1088 697 1083 c 1
 692 906 l 1
 662 913 635 914 611 914 c 0
 430 914 352 816 352 598 c 2
 352 0 l 1
 128 0 l 1xe0
EndSplineSet
EndChar

StartChar: radical
Encoding: 8730 8730 327
Width: 1265
VWidth: 0
Flags: W
HStem: -165 21G<601.82 751.574> 726 21G<123.561 224.065>
LayerCount: 2
Fore
SplineSet
609 -165 m 1
 278 757 l 1
 126 726 l 1
 111 849 l 1
 370 906 l 1
 609 237 l 1
 668 49 l 1
 803 616 936 1179 1072 1746 c 1
 1184 1746 l 1
 747 -165 l 1
 609 -165 l 1
EndSplineSet
EndChar

StartChar: registered
Encoding: 174 174 330
Width: 1670
VWidth: 0
Flags: W
HStem: -17 106<598.501 1070.67> 713 127<671 867.318> 1124 126<671 1013.96> 1428 107<597.624 1070>
VStem: 68 122<512.686 1012.48> 528 143<283 713 840 1124> 1039 141<872.579 1096.06> 1481 122<512.447 1004.04>
LayerCount: 2
Fore
SplineSet
834 -17 m 0
 435 -17 68 279 68 759 c 0
 68 1238 434 1535 833 1535 c 0
 1234 1535 1603 1237 1603 759 c 0
 1603 279 1235 -17 834 -17 c 0
834 89 m 0
 1188 89 1481 358 1481 758 c 0
 1481 1157 1188 1428 833 1428 c 0
 481 1428 190 1158 190 759 c 0
 190 358 482 89 834 89 c 0
671 840 m 1
 838 840 l 2
 978 840 1039 870 1039 986 c 0
 1039 1111 974 1124 817 1124 c 2
 671 1124 l 1
 671 840 l 1
528 283 m 1
 528 1250 l 1
 848 1250 l 2
 1065 1250 1180 1175 1180 990 c 0
 1180 849 1123 761 982 733 c 1
 1023 678 1220 283 1220 283 c 1
 1061 283 l 1
 1061 283 865 689 842 713 c 1
 671 713 l 1
 671 283 l 1
 528 283 l 1
EndSplineSet
EndChar

StartChar: rho
Encoding: 961 961 331
Width: 1188
VWidth: 0
Flags: W
HStem: -12 179<499.001 787.567> 964 179<510.602 789.898>
VStem: 140 228<-441 140 312.929 822.538> 140 201<1015.92 1119> 920 228<321.462 810.403>
LayerCount: 2
Fore
SplineSet
647 167 m 0xc8
 820 167 920 314 920 569 c 0
 920 825 821 964 646 964 c 0
 459 964 368 836 367 585 c 1
 367 303 451 167 647 167 c 0xc8
140 -452 m 1xd8
 140 1119 l 1
 341 1119 l 1xd8
 362 968 l 1
 423 1072 555 1143 698 1143 c 0
 982 1143 1148 894 1148 564 c 0
 1148 232 968 -12 688 -12 c 0
 554 -12 434 50 363 140 c 1
 366 78 368 20 368 -29 c 2
 368 -441 l 1xe8
 140 -452 l 1xd8
EndSplineSet
EndChar

StartChar: ring
Encoding: 730 730 332
Width: 602
VWidth: 0
Flags: W
HStem: 1086 97<223.211 377.233> 1391 98<224.045 377.002>
VStem: 94 113<1196.62 1375.37> 395 112<1198 1374.49>
LayerCount: 2
Fore
SplineSet
300 1086 m 0
 175 1086 94 1180 94 1288 c 0
 94 1397 174 1489 300 1489 c 0
 427 1489 507 1396 507 1288 c 0
 507 1180 425 1086 300 1086 c 0
300 1183 m 0
 358 1183 395 1231 395 1287 c 0
 395 1341 358 1391 300 1391 c 0
 243 1391 207 1341 207 1287 c 0
 207 1230 240 1183 300 1183 c 0
EndSplineSet
EndChar

StartChar: s
Encoding: 115 115 333
Width: 998
VWidth: 0
Flags: W
HStem: -18 174<350.15 652.849> 927 174<381.29 660.957>
VStem: 128 226<726.274 896.661> 687 219<198.444 380.747>
LayerCount: 2
Fore
SplineSet
530 927 m 0
 423 927 354 897 354 815 c 0
 354 752 387 716 522 664 c 0
 895 519 901 426 906 304 c 0
 906 299 906 294 906 289 c 0
 906 78 721 -18 512 -18 c 0
 322 -18 153 61 92 234 c 1
 260 321 l 1
 308 196 399 156 511 156 c 0
 634 156 687 208 687 295 c 0
 687 343 675 388 517 449 c 0
 170 583 128 657 128 811 c 0
 128 1025 318 1101 527 1101 c 0
 710 1101 866 1014 882 840 c 1
 709 793 l 1
 685 899 616 927 530 927 c 0
EndSplineSet
EndChar

StartChar: section
Encoding: 167 167 339
Width: 918
VWidth: 0
Flags: W
HStem: -20 177<260.319 597.605> 1337 176<349.594 669.415>
VStem: 116 203<714.888 890.122 1130.08 1301.11> 638 199<197.214 389.22 619.941 801.9>
LayerCount: 2
Fore
SplineSet
471 -20 m 0
 363 -20 233 10 131 62 c 1
 131 261 l 1
 261 188 380 157 466 157 c 0
 579 157 638 213 638 300 c 0
 638 358 612 400 475 447 c 2
 369 484 l 1
 193 544 116 631 116 761 c 0
 116 846 154 916 222 971 c 1
 145 1028 117 1102 117 1207 c 0
 117 1418 287 1513 481 1513 c 0
 591 1513 710 1482 808 1424 c 1
 748 1247 l 1
 661 1309 566 1337 486 1337 c 0
 390 1337 319 1295 319 1220 c 0
 319 1154 348 1122 477 1077 c 2
 566 1046 l 2
 764 978 837 880 837 736 c 0
 837 649 799 583 748 534 c 1
 811 477 837 407 837 321 c 0
 837 76 670 -20 471 -20 c 0
602 618 m 1
 626 642 638 675 638 715 c 0
 638 773 612 815 475 862 c 2
 374 897 l 1
 339 877 319 846 319 805 c 0
 319 739 348 707 477 662 c 2
 566 631 l 2
 579 627 590 623 602 618 c 1
EndSplineSet
EndChar

StartChar: semicolon
Encoding: 59 59 340
Width: 600
VWidth: 0
Flags: W
HStem: -306 21G<184 325.534> 809 280<239.5 439.125>
VStem: 202 274<844.165 1053.31>
LayerCount: 2
Fore
SplineSet
184 -306 m 1
 238 241 l 1
 445 241 l 1
 321 -306 l 1
 184 -306 l 1
340 809 m 0
 257 809 202 874 202 948 c 0
 202 1022 256 1089 340 1089 c 0
 423 1089 476 1022 476 948 c 0
 476 875 423 809 340 809 c 0
EndSplineSet
EndChar

StartChar: seven
Encoding: 55 55 341
Width: 1217
VWidth: 0
Flags: W
HStem: 0 21G<343 595.234> 1294 195<186 811>
LayerCount: 2
Fore
SplineSet
343 0 m 1
 811 1294 l 1
 186 1294 l 1
 178 1489 l 1
 1068 1489 l 1
 1068 1327 l 1
 588 0 l 1
 343 0 l 1
EndSplineSet
EndChar

StartChar: six
Encoding: 54 54 342
Width: 1210
VWidth: 0
Flags: W
HStem: -19 182<458.813 778.695> 760 164<533.795 768.509>
VStem: 115 230<276.475 624.706> 897 231<286.721 625.419>
LayerCount: 2
Fore
SplineSet
615 163 m 0
 797 163 897 288 897 450 c 0
 897 657 760 760 623 760 c 0
 484 760 345 655 345 446 c 0
 345 285 436 163 615 163 c 0
1128 447 m 0
 1128 173 917 -19 623 -19 c 0
 314 -19 115 184 115 457 c 0
 115 663 206 800 323 966 c 1
 687 1493 l 1
 957 1493 l 1
 633 1020 l 2
 607 981 566 928 523 874 c 1
 583 907 652 924 720 924 c 0
 921 924 1128 773 1128 447 c 0
EndSplineSet
EndChar

StartChar: slash
Encoding: 47 47 343
Width: 934
VWidth: 0
Flags: W
HStem: -163 21G<78 266.722>
LayerCount: 2
Fore
SplineSet
78 -163 m 1
 708 1479 l 1
 893 1479 l 1
 259 -163 l 1
 78 -163 l 1
EndSplineSet
EndChar

StartChar: sterling
Encoding: 163 163 345
Width: 1085
VWidth: 0
Flags: W
HStem: 10 195<472 1058> 10 173<98 212.44> 674 166<82 262 472 859> 1322 186<558.663 868.646>
VStem: 262 210<205 674 840 1224.82>
LayerCount: 2
Fore
SplineSet
98 10 m 1x78
 87 183 l 1x78
 262 203 l 1
 262 674 l 1
 82 674 l 1
 82 840 l 1
 262 840 l 1
 262 945 l 2
 262 1255 354 1508 688 1508 c 0
 836 1508 958 1454 1051 1373 c 1
 957 1223 l 1
 872 1286 792 1322 695 1322 c 0
 530 1322 472 1206 472 1018 c 2
 472 840 l 1
 859 840 l 1
 859 674 l 1
 472 674 l 1
 472 205 l 1
 1067 205 l 1
 1058 10 l 1xb8
 98 10 l 1x78
EndSplineSet
EndChar

StartChar: summation
Encoding: 8721 8721 346
Width: 1198
VWidth: 0
Flags: W
HStem: -335 187<328 1184> 1330 180<352 1144>
LayerCount: 2
Fore
SplineSet
71 -335 m 1
 71 -218 l 1
 666 594 l 1
 92 1388 l 1
 92 1510 l 1
 1144 1510 l 1
 1144 1330 l 1
 352 1330 l 1
 898 601 l 1
 328 -148 l 1
 1184 -148 l 1
 1184 -335 l 1
 71 -335 l 1
EndSplineSet
EndChar

StartChar: t
Encoding: 116 116 347
Width: 712
VWidth: 0
Flags: W
HStem: -6 21G<408.5 666.078> 932 150<30 190 414 652>
VStem: 190 224<193.111 932> 223 191<1176.52 1382>
LayerCount: 2
Fore
SplineSet
557 -6 m 2xe0
 260 -6 190 103 190 375 c 2
 190 932 l 1xe0
 23 932 l 1
 30 1070 l 1
 202 1081 l 1
 223 1382 l 1
 414 1397 l 1
 414 1082 l 1xd0
 652 1082 l 1
 652 932 l 1
 414 932 l 1
 414 369 l 2
 414 176 424 183 628 165 c 2
 674 161 l 1
 665 -6 l 1
 557 -6 l 2xe0
EndSplineSet
EndChar

StartChar: tbar
Encoding: 359 359 348
Width: 889
VWidth: 0
Flags: W
HStem: -19 138<488.669 750.28> 648 128<137 291 457 665> 995 119<138 291 457 746>
VStem: 291 166<153.998 648 776 995 1114 1198.35> 334 123<1282.65 1367>
LayerCount: 2
Fore
SplineSet
576 -19 m 0xf0
 311 -19 291 113 291 452 c 2
 291 648 l 1
 137 648 l 1
 137 776 l 1
 291 776 l 1
 291 995 l 1
 124 995 l 1
 138 1114 l 1
 291 1114 l 1xf0
 334 1367 l 1
 457 1375 l 1xe8
 457 1114 l 1
 746 1114 l 1
 746 995 l 1
 457 995 l 1
 457 776 l 1
 665 776 l 1
 665 648 l 1
 457 648 l 1
 457 372 l 2
 457 164 480 119 614 119 c 0
 632 119 674 126 750 131 c 1
 765 -6 l 1
 641 -17 610 -19 576 -19 c 0xf0
EndSplineSet
EndChar

StartChar: thorn
Encoding: 254 254 351
Width: 1163
VWidth: 0
Flags: W
HStem: -18 174<471.269 735.268> 927 174<474.173 743.228>
VStem: 122 225<789 1502> 128 185<963.572 1082> 128 224<-449 154 282.661 811.373> 850 226<290.292 803.864>
LayerCount: 2
Fore
SplineSet
122 1502 m 1xe4
 347 1522 l 1
 347 789 l 1
 122 789 l 1
 122 1502 l 1xe4
EndSplineSet
Refer: 302 112 N 1 0 0 1 0 0 2
EndChar

StartChar: three
Encoding: 51 51 352
Width: 1210
VWidth: 0
Flags: W
HStem: -18 202<351.393 734.193> 1309 204<322.566 720.554>
VStem: 803 228<971.407 1229.63> 832 237<278.74 562.326>
LayerCount: 2
Fore
SplineSet
596 -18 m 0xd0
 434 -18 256 31 151 99 c 1
 213 294 l 1
 305 237 448 184 562 184 c 0
 729 184 832 269 832 418 c 0xd0
 832 626 665 668 425 668 c 2
 383 668 l 1
 360 853 l 1
 426 857 l 1
 630 872 803 916 803 1107 c 0
 803 1234 705 1309 546 1309 c 0
 423 1309 311 1271 224 1214 c 1
 146 1397 l 1
 259 1469 415 1513 582 1513 c 0
 842 1513 1031 1361 1031 1124 c 0xe0
 1031 977 927 832 756 772 c 1
 974 712 1069 580 1069 404 c 0
 1069 126 876 -18 596 -18 c 0xd0
EndSplineSet
EndChar

StartChar: threequarters
Encoding: 190 190 353
Width: 1569
VWidth: 0
Flags: W
HStem: 0 21G<289 482.775 1311 1463> 184 128<1094 1311 1463 1571> 597 144<77 223 398 535>
VStem: 223 175<741 1312> 1311 152<0 184 312 665>
LayerCount: 2
Fore
SplineSet
289 0 m 1
 1247 1492 l 1
 1423 1492 l 1
 470 0 l 1
 289 0 l 1
77 597 m 1
 77 741 l 1
 223 741 l 1
 223 1312 l 1
 186 1292 78 1243 63 1238 c 1
 63 1383 l 1
 109 1402 229 1467 263 1492 c 1
 398 1492 l 1
 398 741 l 1
 535 741 l 1
 535 597 l 1
 77 597 l 1
1094 312 m 1
 1311 312 l 1
 1311 665 l 1
 1094 312 l 1
1311 0 m 1
 1311 184 l 1
 927 184 l 1
 927 309 l 1
 1301 867 l 1
 1463 867 l 1
 1463 312 l 1
 1576 312 l 1
 1571 184 l 1
 1463 184 l 1
 1463 0 l 1
 1311 0 l 1
EndSplineSet
EndChar

StartChar: tilde
Encoding: 732 732 354
Width: 784
VWidth: 0
Flags: W
HStem: 1227 154<425.472 593.499> 1326 140<207.745 380.904>
VStem: 78 114<1227 1314.22> 606 115<1385.35 1465>
LayerCount: 2
Fore
SplineSet
192 1227 m 1xb0
 78 1227 l 1xb0
 78 1358 133 1466 264 1466 c 0x70
 392 1466 486 1381 545 1381 c 0
 574 1381 594 1401 606 1465 c 1
 721 1465 l 1
 721 1339 669 1227 550 1227 c 0xb0
 441 1227 333 1326 264 1326 c 0x70
 229 1326 205 1299 192 1227 c 1xb0
EndSplineSet
EndChar

StartChar: trademark
Encoding: 8482 8482 355
Width: 1709
VWidth: 0
Flags: W
HStem: 1340 136<72 320 463 710>
VStem: 320 143<619 1340> 793 141<619 1234> 1492 141<619 1238>
LayerCount: 2
Fore
SplineSet
320 619 m 1
 320 1340 l 1
 72 1340 l 1
 72 1476 l 1
 710 1476 l 1
 710 1340 l 1
 463 1340 l 1
 463 619 l 1
 320 619 l 1
793 619 m 1
 793 1476 l 1
 980 1476 l 1
 1213 872 l 1
 1458 1476 l 1
 1633 1476 l 1
 1633 619 l 1
 1492 619 l 1
 1492 1238 l 1
 1256 663 l 1
 1157 663 l 1
 934 1234 l 1
 934 619 l 1
 793 619 l 1
EndSplineSet
EndChar

StartChar: two
Encoding: 50 50 356
Width: 1210
VWidth: 0
Flags: W
HStem: 0 184<416 1017> 1309 205<328.429 684.101>
VStem: 781 258<902.392 1213.67>
LayerCount: 2
Fore
SplineSet
528 1309 m 0
 404 1309 276 1249 190 1189 c 1
 117 1382 l 1
 226 1457 376 1514 541 1514 c 0
 778 1514 1039 1392 1039 1060 c 0
 1039 890 946 765 758 560 c 1
 416 184 l 1
 1032 184 l 1
 1017 0 l 1
 172 0 l 1
 135 198 l 1
 607 731 l 2
 716 853 781 943 781 1058 c 0
 781 1233 663 1309 528 1309 c 0
EndSplineSet
EndChar

StartChar: u
Encoding: 117 117 357
Width: 1160
VWidth: 0
Flags: W
HStem: -18 174<420.611 702.198> 0 21G<852.381 1034>
VStem: 123 224<232.589 1082> 810 224<260.662 1082> 855 179<0 109.475>
LayerCount: 2
Fore
SplineSet
1034 1082 m 1xb0
 1034 0 l 1
 855 0 l 1x68
 833 168 l 1
 768 36 660 -18 506 -18 c 0
 265 -18 123 122 123 409 c 2
 123 1082 l 1
 347 1082 l 1
 347 418 l 2
 347 250 406 156 560 156 c 0
 761 156 810 289 810 502 c 2
 810 1082 l 1
 1034 1082 l 1xb0
EndSplineSet
EndChar

StartChar: underscore
Encoding: 95 95 366
Width: 1051
VWidth: 0
Flags: W
HStem: -221 162<66 1017>
LayerCount: 2
Fore
SplineSet
66 -221 m 1
 66 -59 l 1
 1017 -59 l 1
 1017 -221 l 1
 66 -221 l 1
EndSplineSet
EndChar

StartChar: uni00AD
Encoding: 173 173 369
Width: 797
VWidth: 0
Flags: W
HStem: 303 186<87 746>
VStem: 87 659<303 489>
LayerCount: 2
Fore
SplineSet
87 303 m 1
 87 489 l 1
 746 489 l 1
 746 303 l 1
 87 303 l 1
EndSplineSet
EndChar

StartChar: uni00B2
Encoding: 178 178 370
Width: 744
VWidth: 0
Flags: W
HStem: 600 138<324 636> 1331 148<216.548 458.054>
VStem: 490 163<1098.71 1298.43>
LayerCount: 2
Fore
SplineSet
95 600 m 1
 95 735 l 1
 168 811 490 1068 490 1200 c 0
 490 1286 425 1331 359 1331 c 0
 286 1331 207 1298 157 1229 c 1
 80 1336 l 1
 138 1429 249 1479 370 1479 c 0
 514 1479 653 1382 653 1207 c 0
 653 1015 510 903 324 738 c 1
 649 738 l 1
 636 600 l 1
 95 600 l 1
EndSplineSet
EndChar

StartChar: uni00B3
Encoding: 179 179 371
Width: 759
VWidth: 0
Flags: W
HStem: 594 138<227.945 496.301> 995 139<262 476.746> 1349 138<225.163 480.159>
VStem: 499 160<1158.84 1330.7> 524 154<759.907 959.183>
LayerCount: 2
Fore
SplineSet
393 594 m 0xe8
 308 594 205 621 137 679 c 1
 191 802 l 1
 236 760 327 732 388 732 c 0
 468 732 524 774 524 866 c 0xe8
 524 952 452 996 342 996 c 1
 262 995 l 1
 262 1134 l 1
 342 1134 l 2
 446 1134 499 1173 499 1243 c 0
 499 1308 459 1349 389 1349 c 0
 321 1349 236 1319 196 1285 c 1
 141 1394 l 1
 204 1454 303 1487 397 1487 c 0
 533 1487 659 1412 659 1244 c 1xf0
 658 1169 622 1103 536 1072 c 1
 619 1038 678 960 678 864 c 0
 678 690 547 594 393 594 c 0xe8
EndSplineSet
EndChar

StartChar: uni00B9
Encoding: 185 185 373
Width: 732
VWidth: 0
Flags: W
HStem: 615 149<165 319 503 652>
VStem: 319 184<764 1298>
LayerCount: 2
Fore
SplineSet
165 615 m 1
 165 764 l 1
 319 764 l 1
 319 1298 l 1
 282 1277 169 1227 152 1223 c 1
 152 1384 l 1
 167 1387 347 1481 359 1493 c 1
 503 1492 l 1
 503 764 l 1
 652 764 l 1
 652 615 l 1
 165 615 l 1
EndSplineSet
EndChar

StartChar: uni0237
Encoding: 567 567 459
Width: 526
VWidth: 0
Flags: W
HStem: -431 183<-24 141.625>
VStem: 171 234<-223.972 1126>
LayerCount: 2
Fore
SplineSet
-24 -431 m 1
 -56 -248 l 1
 8 -248 l 2
 168 -248 171 -203 171 -52 c 0
 171 -47 171 -41 171 -35 c 2
 171 1126 l 1
 405 1126 l 1
 405 -19 l 2
 405 -307 344 -431 38 -431 c 2
 -24 -431 l 1
EndSplineSet
EndChar

StartChar: uni02BC
Encoding: 700 700 460
Width: 418
VWidth: 0
Flags: W
HStem: 1013 500<161 249>
VStem: 116 229
LayerCount: 2
Fore
SplineSet
116 1013 m 1
 161 1513 l 1
 345 1513 l 1
 249 1013 l 1
 116 1013 l 1
EndSplineSet
EndChar

StartChar: uni0307
Encoding: 775 775 461
Width: 411
VWidth: 0
Flags: W
HStem: 1250 215<124 311>
VStem: 124 187<1250 1465>
LayerCount: 2
Fore
SplineSet
124 1250 m 1
 124 1465 l 1
 311 1465 l 1
 311 1250 l 1
 124 1250 l 1
EndSplineSet
EndChar

StartChar: uni030F
Encoding: 783 783 462
Width: 708
VWidth: 0
Flags: W
HStem: 1152 315<253 266>
VStem: 110 484
LayerCount: 2
Fore
SplineSet
401 1152 m 1
 293 1152 l 1
 110 1467 l 1
 266 1467 l 1
 401 1152 l 1
594 1152 m 1
 489 1152 l 1
 358 1467 l 1
 502 1467 l 1
 594 1152 l 1
EndSplineSet
EndChar

StartChar: uni0311
Encoding: 785 785 463
Width: 663
VWidth: 0
Flags: W
HStem: 1359 127<247.923 441.527>
VStem: 79 147<1241 1332.62> 464 147<1241 1333>
LayerCount: 2
Fore
SplineSet
79 1241 m 1
 79 1410 213 1486 345 1486 c 0
 476 1486 611 1411 611 1241 c 1
 464 1241 l 1
 464 1322 408 1359 344 1359 c 0
 280 1359 226 1321 226 1241 c 1
 79 1241 l 1
EndSplineSet
EndChar

StartChar: uni031B
Encoding: 795 795 464
Width: 511
VWidth: 0
Flags: W
HStem: 169 103<102 212.406>
VStem: 237 127<294.731 517.863>
LayerCount: 2
Fore
SplineSet
213 520 m 1
 324 520 l 1
 348 465 364 405 364 353 c 0
 364 254 312 169 160 169 c 0
 141 169 122 171 102 173 c 1
 102 272 l 1
 116 272 l 2
 210 272 237 338 237 403 c 0
 237 442 227 484 213 520 c 1
EndSplineSet
EndChar

StartChar: uni0326
Encoding: 806 806 465
Width: 302
VWidth: 0
Flags: W
HStem: -677 487
VStem: 52 188
LayerCount: 2
Fore
SplineSet
52 -677 m 1
 135 -190 l 1
 240 -190 l 1
 119 -677 l 1
 52 -677 l 1
EndSplineSet
EndChar

StartChar: uni040A
Encoding: 1034 1034 473
Width: 2129
VWidth: 0
Flags: W
HStem: 0 192<1328 1777.14> 664 190<439 1075 1328 1787.66>
VStem: 186 253<0 664 854 1477> 1075 253<192 664 854 1477> 1868 250<280.094 587.798>
LayerCount: 2
Fore
SplineSet
1075 0 m 1
 1075 664 l 1
 439 664 l 1
 439 0 l 1
 186 0 l 1
 186 1477 l 1
 439 1477 l 1
 439 854 l 1
 1075 854 l 1
 1075 1477 l 1
 1328 1477 l 1
 1327 854 l 1
 1599 854 l 2
 1943 854 2118 717 2118 429 c 0
 2118 142 1925 0 1596 0 c 2
 1075 0 l 1
1328 664 m 1
 1328 192 l 1
 1571 192 l 2
 1764 192 1868 254 1868 430 c 0
 1868 605 1784 664 1586 664 c 2
 1328 664 l 1
EndSplineSet
EndChar

StartChar: uni040B
Encoding: 1035 1035 474
Width: 1574
VWidth: 0
Flags: W
HStem: 0 21G<516 641 1280 1405> 727 98<641 1163.85> 1419 92<59 516 641 1104>
VStem: 516 125<0 727 825 1419> 1280 125<0 614.404>
LayerCount: 2
Fore
SplineSet
1280 0 m 1
 1280 420 l 2
 1280 655 1168 727 955 727 c 2
 641 727 l 1
 641 0 l 1
 516 0 l 1
 516 1419 l 1
 59 1419 l 1
 59 1511 l 1
 1104 1511 l 1
 1104 1419 l 1
 641 1419 l 1
 641 825 l 1
 953 825 l 2
 1267 825 1405 686 1405 421 c 2
 1405 0 l 1
 1280 0 l 1
EndSplineSet
EndChar

StartChar: uni040F
Encoding: 1039 1039 476
Width: 1553
VWidth: 0
Flags: W
HStem: -300 21G<733 858> 7 91<354 733 858 1201>
VStem: 230 124<98 1517> 733 125<-300 7> 1201 124<98 1517>
LayerCount: 2
Fore
SplineSet
1325 1517 m 1
 1325 7 l 1
 858 7 l 1
 858 -300 l 1
 733 -300 l 1
 733 7 l 1
 230 7 l 1
 230 1517 l 1
 354 1517 l 1
 354 98 l 1
 1201 98 l 1
 1201 1517 l 1
 1325 1517 l 1
EndSplineSet
EndChar

StartChar: uni0411
Encoding: 1041 1041 478
Width: 1269
VWidth: 0
Flags: W
HStem: 0 195<435 901.066> 667 196<435 918.335> 1297 192<435 1098>
VStem: 182 253<195 667 863 1297> 996 254<277.294 591.12>
LayerCount: 2
Fore
SplineSet
182 0 m 1
 182 1489 l 1
 1098 1489 l 1
 1098 1297 l 1
 435 1297 l 1
 435 863 l 1
 733 863 l 2
 1077 863 1250 722 1250 433 c 0
 1250 146 1060 0 731 0 c 2
 182 0 l 1
435 667 m 1
 435 195 l 1
 705 195 l 2
 894 195 996 255 996 431 c 0
 996 606 916 667 720 667 c 2
 435 667 l 1
EndSplineSet
EndChar

StartChar: uni0414
Encoding: 1044 1044 479
Width: 1492
VWidth: 0
Flags: W
HStem: -300 399<28 141 1282 1393> 7 92<141 231.575 343 1134 1258 1282> 1424 92<526 1133>
VStem: 28 113<-300 7> 1134 124<99 1425> 1282 111<-300 7>
LayerCount: 2
Fore
SplineSet
28 -300 m 1xbc
 28 99 l 1xbc
 191 99 l 1
 285 166 328 399 385 1143 c 1
 412 1516 l 1
 1258 1516 l 1
 1258 99 l 1x7c
 1393 99 l 1
 1393 -300 l 1
 1282 -300 l 1xbc
 1282 7 l 1
 141 7 l 1x7c
 141 -300 l 1
 28 -300 l 1xbc
526 1424 m 1
 501 1132 l 1
 465 671 438 275 343 99 c 1
 1134 99 l 1x7c
 1133 1425 l 1
 526 1424 l 1
EndSplineSet
EndChar

StartChar: uni041B
Encoding: 1051 1051 483
Width: 1526
VWidth: 0
Flags: W
HStem: -25 206<-73 147.952> 0 21G<1141 1394> 1285 192<480 1141>
VStem: 227 253<270.774 1285> 1141 253<1 1285>
LayerCount: 2
Fore
SplineSet
-73 -25 m 1xb8
 -73 181 l 1
 -1 181 l 2xb8
 188 181 227 309 227 459 c 2
 227 1477 l 1
 1394 1477 l 1
 1394 0 l 1x78
 1141 1 l 1
 1141 1285 l 1
 480 1285 l 1
 480 477 l 2
 480 146 335 -25 28 -25 c 2
 -73 -25 l 1xb8
EndSplineSet
EndChar

StartChar: uni041F
Encoding: 1055 1055 487
Width: 1504
VWidth: 0
Flags: W
HStem: 0 21G<186 439 1118 1371> 1285 192<439 1118>
VStem: 186 253<0 1285> 1118 253<0 1285>
LayerCount: 2
Fore
SplineSet
186 0 m 1
 186 1477 l 1
 1371 1477 l 1
 1371 0 l 1
 1118 0 l 1
 1118 1285 l 1
 439 1285 l 1
 439 0 l 1
 186 0 l 1
EndSplineSet
EndChar

StartChar: uni0423
Encoding: 1059 1059 491
Width: 1361
VWidth: 0
Flags: W
HStem: 0 21G<425 552.3>
LayerCount: 2
Fore
SplineSet
732 635 m 1
 1123 1501 l 1
 1241 1501 l 1
 543 0 l 1
 425 0 l 1
 681 530 l 1
 161 1501 l 1
 278 1501 l 1
 732 635 l 1
EndSplineSet
EndChar

StartChar: uni0424
Encoding: 1060 1060 492
Width: 1645
VWidth: 0
Flags: W
HStem: 0 21G<746.86 957> 143 196<553.422 746 957 1152.16> 1158 195<553.844 746 957 1151.45>
VStem: 83 227<565.268 935.197> 746 211<0 145.655 339 1158 1354 1484> 1402 226<562.144 938.522>
LayerCount: 2
Fore
SplineSet
957 338 m 1
 1260 361 1402 528 1402 751 c 0
 1402 970 1262 1135 957 1158 c 1
 957 338 l 1
746 339 m 1
 746 1158 l 1
 452 1133 310 969 310 751 c 0
 310 529 451 364 746 339 c 1
747 0 m 1
 746 143 l 1
 341 169 83 403 83 752 c 0
 83 1097 339 1328 746 1353 c 1
 747 1484 l 1
 957 1484 l 1
 957 1354 l 1
 1358 1335 1628 1111 1628 752 c 0
 1628 390 1360 165 957 143 c 1
 957 0 l 1
 747 0 l 1
EndSplineSet
EndChar

StartChar: uni0427
Encoding: 1063 1063 494
Width: 1400
VWidth: 0
Flags: W
HStem: 8 21G<958 1177> 532 195<430.131 956.782>
VStem: 139 211<809.285 1470> 958 219<8 549 741.744 1470>
LayerCount: 2
Fore
SplineSet
958 8 m 1
 958 549 l 1
 932 537 654 532 640 532 c 0
 337 532 139 640 139 953 c 2
 139 1470 l 1
 350 1470 l 1
 350 982 l 2
 350 766 443 727 645 727 c 0
 658 727 940 740 958 747 c 1
 958 1470 l 1
 1177 1470 l 1
 1177 8 l 1
 958 8 l 1
EndSplineSet
EndChar

StartChar: uni0428
Encoding: 1064 1064 495
Width: 1712
VWidth: 0
Flags: W
HStem: 0 184<398 777 1007 1371>
VStem: 168 230<184 1489> 777 230<184 1489> 1371 231<184 1489>
LayerCount: 2
Fore
SplineSet
168 0 m 1
 168 1489 l 1
 398 1489 l 1
 398 184 l 1
 777 184 l 1
 777 1489 l 1
 1007 1489 l 1
 1007 184 l 1
 1371 184 l 1
 1371 1489 l 1
 1602 1489 l 1
 1602 0 l 1
 168 0 l 1
EndSplineSet
EndChar

StartChar: uni0429
Encoding: 1065 1065 496
Width: 1763
VWidth: 0
Flags: W
HStem: 7 184<412 791 1021 1385>
VStem: 182 230<191 1496> 791 230<191 1496> 1385 231<191 1496> 1532 206<-311 7>
LayerCount: 2
Fore
SplineSet
1532 -311 m 1xe8
 1532 7 l 1xe8
 182 7 l 1
 182 1496 l 1
 412 1496 l 1
 412 191 l 1
 791 191 l 1
 791 1496 l 1
 1021 1496 l 1
 1021 191 l 1
 1385 191 l 1
 1385 1496 l 1
 1616 1496 l 1
 1616 147 l 1xf0
 1738 147 l 1
 1738 -311 l 1
 1532 -311 l 1xe8
EndSplineSet
EndChar

StartChar: uni042A
Encoding: 1066 1066 497
Width: 1363
VWidth: 0
Flags: W
HStem: 0 195<474 906.066> 669 194<474 924.335> 1285 191<-33 221>
VStem: 221 253<195 669 863 1285> 1002 253<283.971 592.44>
LayerCount: 2
Fore
SplineSet
221 0 m 1
 221 1285 l 1
 -34 1285 l 1
 -33 1476 l 1
 475 1476 l 1
 474 863 l 1
 739 863 l 2
 1083 863 1255 722 1255 433 c 0
 1255 146 1065 0 736 0 c 2
 221 0 l 1
474 669 m 1
 474 195 l 1
 710 195 l 2
 899 195 1002 259 1002 434 c 0
 1002 609 922 669 726 669 c 2
 474 669 l 1
EndSplineSet
EndChar

StartChar: uni042B
Encoding: 1067 1067 498
Width: 1804
VWidth: 0
Flags: W
HStem: 0 98<354 933.677> 756 98<354 939.403>
VStem: 230 124<98 756 854 1509> 1069 124<221.48 637.25> 1451 125<0 1511>
LayerCount: 2
Fore
SplineSet
230 0 m 1
 230 1509 l 1
 354 1509 l 1
 354 854 l 1
 706 854 l 2
 1108 854 1193 655 1193 433 c 0
 1193 201 1117 0 713 0 c 2
 230 0 l 1
1451 0 m 1
 1451 1511 l 1
 1576 1511 l 1
 1576 0 l 1
 1451 0 l 1
354 756 m 1
 354 98 l 1
 719 98 l 2
 974 98 1069 197 1069 429 c 0
 1069 666 982 756 705 756 c 2
 354 756 l 1
EndSplineSet
EndChar

StartChar: uni042C
Encoding: 1068 1068 499
Width: 1296
VWidth: 0
Flags: W
HStem: 0 195<435 888.066> 669 194<435 905.335>
VStem: 182 253<195 669 863 1475> 983 254<283.971 592.44>
LayerCount: 2
Fore
SplineSet
182 0 m 1
 182 1475 l 1
 436 1476 l 1
 435 863 l 1
 720 863 l 2
 1064 863 1237 722 1237 433 c 0
 1237 146 1047 0 718 0 c 2
 182 0 l 1
435 669 m 1
 435 195 l 1
 692 195 l 2
 881 195 983 259 983 434 c 0
 983 609 903 669 707 669 c 2
 435 669 l 1
EndSplineSet
EndChar

StartChar: uni0431
Encoding: 1073 1073 501
Width: 1097
VWidth: 0
Flags: W
HStem: -20 95<519.152 755.008> 778 76<441.112 745.887> 1182 80<634.658 908>
VStem: 116 129<306.328 646.724> 891 86<228.724 623.21>
LayerCount: 2
Fore
SplineSet
572 75 m 1
 820 75 891 203 891 453 c 0
 891 624 781 778 619 778 c 0
 566 778 403 764 253 614 c 1
 247 571 245 531 245 494 c 0
 245 176 506 160 572 75 c 1
576 -20 m 0
 154 -20 116 372 116 502 c 0
 116 530 118 543 118 543 c 1
 118 955 291 1225 911 1262 c 1
 908 1182 l 1
 635 1166 317 1125 235 715 c 1
 384 787 427 854 619 854 c 0
 866 854 977 597 977 437 c 0
 977 201 830 -20 576 -20 c 0
EndSplineSet
EndChar

StartChar: uni0432
Encoding: 1074 1074 502
Width: 1144
VWidth: 0
Flags: W
HStem: 0 89<321 842.09> 527 94<321 831.278> 1011 89<321 816.797>
VStem: 197 124<89 527 621 1011> 882 122<671.995 951.291> 918 122<161.167 471.67>
LayerCount: 2
Fore
SplineSet
321 621 m 1xf8
 691 621 l 2
 857 621 882 726 882 818 c 0
 882 930 833 1011 651 1011 c 2
 321 1011 l 1
 321 621 l 1xf8
321 89 m 1
 646 89 l 2
 885 89 918 191 918 314 c 0xf4
 918 410 917 527 696 527 c 2
 321 527 l 1
 321 89 l 1
197 0 m 1
 197 1100 l 1
 653 1100 l 2
 932 1100 1004 950 1004 823 c 0xf8
 1004 695 938 619 831 586 c 1
 999 539 1040 407 1040 314 c 0
 1040 182 984 0 651 0 c 2
 197 0 l 1
EndSplineSet
EndChar

StartChar: uni0433
Encoding: 1075 1075 503
Width: 932
VWidth: 0
Flags: W
HStem: 0 21G<197 321> 1002 98<321 876>
VStem: 197 124<0 1002>
LayerCount: 2
Fore
SplineSet
197 0 m 1
 197 1100 l 1
 876 1100 l 1
 876 1002 l 1
 321 1002 l 1
 321 0 l 1
 197 0 l 1
EndSplineSet
EndChar

StartChar: uni0434
Encoding: 1076 1076 504
Width: 1265
VWidth: 0
Flags: W
HStem: -280 21G<62 157 1027 1133> 6 80<151 229.734 303 936> 1036 72<539.611 936>
VStem: 62 95<-280 6> 936 135<86 1036> 1027 106<-280 6>
LayerCount: 2
Fore
SplineSet
303 83 m 1xf8
 936 83 l 1
 936 1036 l 1
 546 1036 l 1
 539 1009 444 397 446 416 c 1
 408 235 346 89 303 83 c 1xf8
62 -280 m 1
 62 86 l 1
 167 86 l 1
 251 110 272 189 310 296 c 1
 453 1108 l 1
 1071 1108 l 1
 1071 86 l 1xf8
 1133 86 l 1
 1133 -280 l 1
 1027 -280 l 1xf4
 1039 6 l 1
 151 6 l 1
 157 -280 l 1
 62 -280 l 1
EndSplineSet
EndChar

StartChar: uni0436
Encoding: 1078 1078 506
Width: 1568
VWidth: 0
Flags: W
HStem: 0 21G<62 203.084 705 837 1342.77 1482>
VStem: 705 132<0 546 574 1102>
LayerCount: 2
Fore
SplineSet
62 0 m 1
 615 569 l 1
 65 1102 l 1
 173 1102 l 1
 705 574 l 1
 705 1102 l 1
 837 1102 l 1
 837 574 l 1
 1373 1102 l 1
 1479 1102 l 1
 930 569 l 1
 1482 0 l 1
 1362 0 l 1
 837 546 l 1
 837 0 l 1
 705 0 l 1
 705 546 l 1
 184 0 l 1
 62 0 l 1
EndSplineSet
EndChar

StartChar: uni0438
Encoding: 1080 1080 507
Width: 1187
VWidth: 0
Flags: W
HStem: 0 21G<175 290.563 892 997>
VStem: 175 102<164 1100> 892 105<0 846 1008 1100>
LayerCount: 2
Fore
SplineSet
175 0 m 1
 175 1100 l 1
 277 1100 l 1
 277 164 l 1
 892 1008 l 1
 892 1100 l 1
 997 1100 l 1
 997 0 l 1
 892 0 l 1
 892 846 l 1
 276 0 l 1
 175 0 l 1
EndSplineSet
EndChar

StartChar: uni043A
Encoding: 1082 1082 509
Width: 1224
VWidth: 0
Flags: W
HStem: 0 21G<212 344 874.517 1044>
VStem: 212 132<0 538 570 1100>
LayerCount: 2
Fore
SplineSet
212 0 m 1
 212 1100 l 1
 344 1100 l 1
 344 570 l 1
 820 1099 l 1
 986 1101 l 1
 484 551 l 1
 1044 0 l 1
 895 0 l 1
 344 538 l 1
 344 0 l 1
 212 0 l 1
EndSplineSet
EndChar

StartChar: uni043B
Encoding: 1083 1083 510
Width: 1243
VWidth: 0
Flags: W
HStem: -7 104<44 196.613> 1003 97<500 916>
VStem: 916 132<-1 1003>
LayerCount: 2
Fore
SplineSet
44 -7 m 1
 26 97 l 1
 206 97 272 141 320 510 c 1
 387 1100 l 1
 1048 1100 l 1
 1048 -1 l 1
 916 -1 l 1
 916 1003 l 1
 500 1003 l 1
 437 498 l 1
 387 67 297 -7 44 -7 c 1
EndSplineSet
EndChar

StartChar: uni043C
Encoding: 1084 1084 511
Width: 1386
VWidth: 0
Flags: W
HStem: 0 21G<197 312 1075 1190>
VStem: 197 115<0 853> 1075 115<0 853>
LayerCount: 2
Fore
SplineSet
197 0 m 1
 197 1100 l 1
 308 1100 l 1
 697 304 l 1
 1082 1100 l 1
 1190 1100 l 1
 1190 0 l 1
 1075 0 l 1
 1075 853 l 1
 742 169 l 1
 649 169 l 1
 312 853 l 1
 312 0 l 1
 197 0 l 1
EndSplineSet
EndChar

StartChar: uni043D
Encoding: 1085 1085 512
Width: 1270
VWidth: 0
Flags: W
HStem: 0 21G<197 321 951 1075> 535 99<321 951>
VStem: 197 124<0 535 634 1100> 951 124<0 535 634 1100>
LayerCount: 2
Fore
SplineSet
197 0 m 1
 197 1100 l 1
 321 1100 l 1
 321 634 l 1
 951 634 l 1
 951 1100 l 1
 1075 1100 l 1
 1075 0 l 1
 951 0 l 1
 951 535 l 1
 321 535 l 1
 321 0 l 1
 197 0 l 1
EndSplineSet
EndChar

StartChar: uni043F
Encoding: 1087 1087 514
Width: 1242
VWidth: 0
Flags: W
HStem: 0 21G<197 321 922 1047> 1004 96<321 922>
VStem: 197 124<0 1004> 922 125<0 1004>
LayerCount: 2
Fore
SplineSet
197 0 m 1
 197 1100 l 1
 1047 1100 l 1
 1047 0 l 1
 922 0 l 1
 922 1004 l 1
 321 1004 l 1
 321 0 l 1
 197 0 l 1
EndSplineSet
EndChar

StartChar: uni0442
Encoding: 1090 1090 517
Width: 1045
VWidth: 0
Flags: W
HStem: 0 21G<444 582> 994 106<139 444 582 892>
VStem: 444 138<0 994>
LayerCount: 2
Fore
SplineSet
444 0 m 1
 444 994 l 1
 139 994 l 1
 139 1100 l 1
 892 1100 l 1
 892 994 l 1
 582 994 l 1
 582 0 l 1
 444 0 l 1
EndSplineSet
EndChar

StartChar: uni0443
Encoding: 1091 1091 518
Width: 1140
VWidth: 0
Flags: W
HStem: -310 105<256 540.316>
VStem: 596 114<-151.797 159>
LayerCount: 2
Fore
SplineSet
256 -310 m 1
 256 -205 l 1
 552 -205 596 -185 596 21 c 0
 596 26 596 31 596 36 c 2
 595 159 l 1
 120 1106 l 1
 247 1106 l 1
 643 303 l 1
 965 1106 l 1
 1087 1106 l 1
 709 162 l 1
 710 34 l 2
 710 25 710 16 710 8 c 0
 710 -253 660 -310 256 -310 c 1
EndSplineSet
EndChar

StartChar: uni0444
Encoding: 1092 1092 519
Width: 1502
VWidth: 0
Flags: W
HStem: 54 95<324.362 655.007 769.055 1095.54> 977 93<303.418 643.345 779.421 1112.23>
VStem: 64 121<331.726 822.349> 658 105<-389 92 175.105 944.024 1019 1368> 1237 120<332.23 822.444>
LayerCount: 2
Fore
SplineSet
978 149 m 0
 1137 149 1237 354 1237 573 c 0
 1237 794 1154 976 994 976 c 0
 922 976 835 965 763 924 c 1
 763 196 l 1
 831 155 910 149 978 149 c 0
443 149 m 0
 509 149 593 156 658 190 c 1
 658 931 l 1
 584 972 493 977 425 977 c 0
 263 977 185 794 185 574 c 0
 185 355 281 149 443 149 c 0
658 -389 m 1
 658 92 l 1
 596 63 509 54 437 54 c 0
 231 54 64 268 64 573 c 0
 64 877 211 1070 426 1070 c 0
 493 1070 596 1049 658 1019 c 1
 658 1368 l 1
 763 1368 l 1
 763 1019 l 1
 828 1050 920 1070 992 1070 c 0
 1206 1070 1357 878 1357 574 c 0
 1357 271 1190 54 982 54 c 0
 910 54 823 63 763 92 c 1
 763 -389 l 1
 658 -389 l 1
EndSplineSet
EndChar

StartChar: uni0446
Encoding: 1094 1094 521
Width: 1221
VWidth: 0
Flags: W
HStem: -280 21G<972 1136> 6 81<342 908>
VStem: 212 130<87 1108> 908 131<147 1108> 972 164<-280 -6.66027>
LayerCount: 2
Fore
SplineSet
972 -280 m 1xe8
 987 6 l 1
 212 6 l 1
 212 1108 l 1
 342 1108 l 1
 342 87 l 1
 908 87 l 1
 908 1108 l 1
 1039 1108 l 1
 1039 147 l 1xf0
 1136 147 l 1
 1136 -280 l 1
 972 -280 l 1xe8
EndSplineSet
EndChar

StartChar: uni0447
Encoding: 1095 1095 522
Width: 1061
VWidth: 0
Flags: W
HStem: 0 21G<754 978> 386 181<386.553 694.014>
VStem: 91 224<641.5 1109> 754 224<0 452 621.639 1109>
LayerCount: 2
Fore
SplineSet
754 0 m 1
 754 452 l 1
 715 412 596 386 503 386 c 0
 230 388 91 521 91 830 c 2
 91 1109 l 1
 315 1109 l 1
 315 863 l 2
 315 667 360 567 534 567 c 0
 643 567 750 633 754 672 c 1
 754 1109 l 1
 978 1109 l 1
 978 0 l 1
 754 0 l 1
EndSplineSet
EndChar

StartChar: uni0448
Encoding: 1096 1096 523
Width: 1520
VWidth: 0
Flags: W
HStem: 0 80<420 750 857 1185>
VStem: 295 125<80 1100> 750 107<80 1100> 1185 128<80 1100>
LayerCount: 2
Fore
SplineSet
295 0 m 1
 295 1100 l 1
 420 1100 l 1
 420 80 l 1
 750 80 l 1
 750 1100 l 1
 857 1100 l 1
 857 80 l 1
 1185 80 l 1
 1185 1100 l 1
 1313 1100 l 1
 1313 0 l 1
 295 0 l 1
EndSplineSet
EndChar

StartChar: uni0449
Encoding: 1097 1097 524
Width: 1474
VWidth: 0
Flags: W
HStem: -286 21G<1227 1388> 6 81<356 710 854 1146>
VStem: 214 142<87 1108> 710 144<87 1108> 1146 144<146 1108> 1227 161<-286 6>
LayerCount: 2
Fore
SplineSet
1227 -286 m 1xf4
 1238 6 l 1
 214 6 l 1
 214 1108 l 1
 356 1108 l 1
 356 87 l 1
 710 87 l 1
 710 1108 l 1
 854 1108 l 1
 854 87 l 1
 1146 87 l 1
 1146 1108 l 1
 1290 1108 l 1
 1290 146 l 1xf8
 1388 146 l 1
 1388 -286 l 1
 1227 -286 l 1xf4
EndSplineSet
EndChar

StartChar: uni044A
Encoding: 1098 1098 525
Width: 1048
VWidth: 0
Flags: W
HStem: 0 89<363 701.631> 603 96<364 705.632> 1020 80<84 233>
VStem: 233 130<89 603 699 1020> 786 148<181.98 521.682>
LayerCount: 2
Fore
SplineSet
363 89 m 1
 585 89 l 2
 743 89 786 252 786 364 c 0
 786 481 730 603 578 603 c 2
 363 603 l 1
 363 89 l 1
233 0 m 1
 233 1020 l 1
 84 1020 l 1
 84 1100 l 1
 364 1100 l 1
 364 699 l 1
 568 699 l 2
 876 699 934 511 934 362 c 0
 934 202 865 0 570 0 c 2
 233 0 l 1
EndSplineSet
EndChar

StartChar: uni044B
Encoding: 1099 1099 526
Width: 1536
VWidth: 0
Flags: W
HStem: 0 89<320 739.327> 601 95<321 748.75>
VStem: 197 123<89 601 696 1100> 835 119<182.688 517.716> 1216 124<0 1100>
LayerCount: 2
Fore
SplineSet
1216 0 m 1
 1216 1100 l 1
 1340 1100 l 1
 1340 0 l 1
 1216 0 l 1
320 89 m 1
 585 89 l 2
 744 89 835 173 835 362 c 0
 835 524 743 601 589 601 c 2
 320 601 l 1
 320 89 l 1
197 0 m 1
 197 1100 l 1
 321 1100 l 1
 321 696 l 1
 579 696 l 2
 888 696 954 508 954 360 c 0
 954 200 887 0 581 0 c 2
 197 0 l 1
EndSplineSet
EndChar

StartChar: uni044C
Encoding: 1100 1100 527
Width: 1038
VWidth: 0
Flags: W
HStem: 0 89<320 739.327> 601 95<321 748.75>
VStem: 197 123<89 601 696 1100> 835 119<182.688 517.716>
LayerCount: 2
Fore
SplineSet
320 89 m 1
 585 89 l 2
 744 89 835 173 835 362 c 0
 835 524 743 601 589 601 c 2
 320 601 l 1
 320 89 l 1
197 0 m 1
 197 1100 l 1
 321 1100 l 1
 321 696 l 1
 579 696 l 2
 888 696 954 508 954 360 c 0
 954 200 887 0 581 0 c 2
 197 0 l 1
EndSplineSet
EndChar

StartChar: uni044D
Encoding: 1101 1101 528
Width: 1218
VWidth: 0
Flags: W
HStem: -29 96<293.11 687.352> 494 106<479 929> 951 21G<201.5 252> 1040 94<295.041 702.091>
VStem: 929 105<318.285 494 600 792.476>
LayerCount: 2
Fore
SplineSet
509 -29 m 0
 368 -29 236 10 183 69 c 1
 214 151 l 1
 325 86 419 67 502 67 c 0
 751 67 913 253 929 494 c 1
 479 494 l 1
 479 600 l 1
 929 600 l 1
 912 848 782 1040 497 1040 c 0
 379 1040 293 1001 211 951 c 1
 173 1031 l 1
 247 1099 392 1134 495 1134 c 0
 920 1134 1034 804 1034 533 c 0
 1034 289 889 -29 509 -29 c 0
EndSplineSet
EndChar

StartChar: uni044E
Encoding: 1102 1102 529
Width: 1550
VWidth: 0
Flags: W
HStem: -29 96<768.598 1093.6> 1 21G<175 265> 504 87<265 480> 1038 96<763.069 1098.22>
VStem: 175 90<1 504 591 1100> 480 109<280.511 504 591 814.941> 1260 105<269.748 841.044>
LayerCount: 2
Fore
SplineSet
933 67 m 0xbe
 1192 67 1260 305 1260 548 c 0
 1260 799 1202 1038 928 1038 c 0
 665 1038 589 785 589 542 c 0
 589 305 668 67 933 67 c 0xbe
928 -29 m 0
 612 -29 485 200 480 504 c 1
 265 504 l 1
 265 1 l 1
 175 1 l 1x7e
 175 1100 l 1
 265 1100 l 1
 265 591 l 1
 480 591 l 1
 486 892 615 1134 933 1134 c 0
 1278 1134 1365 870 1365 551 c 0
 1365 247 1266 -29 928 -29 c 0
EndSplineSet
EndChar

StartChar: uni044F
Encoding: 1103 1103 530
Width: 1158
VWidth: 0
Flags: W
HStem: 0 21G<185 324.78 838 963> 451 92<514 838> 1010 90<324.467 838>
VStem: 126 120<636.978 929.8> 838 125<0 451 543 1010>
LayerCount: 2
Fore
SplineSet
520 543 m 2
 838 543 l 1
 838 1010 l 1
 499 1010 l 2
 284 1010 246 887 246 777 c 0
 246 636 343 543 520 543 c 2
185 0 m 1
 389 458 l 1
 190 508 126 669 126 784 c 0
 126 931 223 1100 499 1100 c 2
 963 1100 l 1
 963 0 l 1
 838 0 l 1
 838 451 l 1
 514 451 l 1
 316 0 l 1
 185 0 l 1
EndSplineSet
EndChar

StartChar: uni0452
Encoding: 1106 1106 533
Width: 1360
VWidth: 0
Flags: W
HStem: -286 134<810 996.178> 6 21G<300 453> 761 142<636.691 952.102> 1123 106<205 300 453 878>
VStem: 300 153<6 592.25 705 1123 1229 1533> 1038 155<-109.893 666.235>
LayerCount: 2
Fore
SplineSet
810 -286 m 1
 799 -152 l 1
 835 -152 l 2
 1016 -152 1038 -115 1038 105 c 2
 1038 376 l 2
 1038 631 1005 761 807 761 c 0
 626 761 482 616 453 506 c 1
 453 6 l 1
 300 6 l 1
 300 1123 l 1
 205 1123 l 1
 205 1229 l 1
 300 1229 l 1
 300 1533 l 1
 453 1533 l 1
 453 1229 l 1
 878 1229 l 1
 878 1123 l 1
 453 1123 l 1
 453 705 l 1
 546 828 665 903 822 903 c 0
 1077 903 1193 744 1193 452 c 2
 1193 160 l 2
 1193 -153 1172 -286 877 -286 c 2
 810 -286 l 1
EndSplineSet
EndChar

StartChar: uni045A
Encoding: 1114 1114 539
Width: 1555
VWidth: 0
Flags: W
HStem: 0 174<1002 1324.59> 497 183<348 782> 516 165<1002 1327.35>
VStem: 125 223<0 497 680 1109> 782 220<174 497 681 1109> 1377 189<225.257 464.994>
LayerCount: 2
Fore
SplineSet
1002 174 m 1xbc
 1200 174 l 2
 1323 174 1377 254 1377 350 c 0
 1377 442 1322 516 1199 516 c 2
 1002 516 l 1
 1002 174 l 1xbc
125 0 m 1
 125 1109 l 1
 348 1109 l 1
 348 680 l 1
 782 680 l 1xdc
 782 1109 l 1
 1002 1109 l 1
 1002 681 l 1
 1209 681 l 2xbc
 1439 681 1566 557 1566 344 c 0
 1566 151 1433 0 1208 0 c 2
 782 0 l 1
 782 497 l 1
 348 497 l 1xdc
 348 0 l 1
 125 0 l 1
EndSplineSet
EndChar

StartChar: uni045F
Encoding: 1119 1119 543
Width: 1062
VWidth: 0
Flags: W
HStem: -299 21G<485.542 661.523> 7 172<332 479 669 777>
VStem: 119 213<179 1115> 486 175<-299 7> 777 212<179 1115>
LayerCount: 2
Fore
SplineSet
486 -299 m 1
 479 7 l 1
 119 7 l 1
 119 1115 l 1
 332 1115 l 1
 332 179 l 1
 777 179 l 1
 777 1115 l 1
 989 1115 l 1
 989 7 l 1
 669 7 l 1
 661 -299 l 1
 486 -299 l 1
EndSplineSet
EndChar

StartChar: uni2074
Encoding: 8308 8308 562
Width: 765
VWidth: 0
Flags: W
HStem: 812 141<262 424 563 659>
VStem: 424 139<625 812 953 1231>
LayerCount: 2
Fore
SplineSet
262 953 m 1
 424 953 l 1
 424 1231 l 1
 262 953 l 1
425 625 m 1
 425 812 l 1
 95 812 l 1
 95 928 l 1
 422 1472 l 1
 563 1472 l 1
 563 953 l 1
 659 953 l 1
 670 812 l 1
 562 812 l 1
 561 625 l 1
 425 625 l 1
EndSplineSet
EndChar

StartChar: uni2206
Encoding: 8710 8710 563
Width: 1385
VWidth: 0
Flags: W
HStem: 0 176<308 1080>
LayerCount: 2
Fore
SplineSet
308 176 m 1
 1080 176 l 1
 724 1212 l 1
 690 1333 l 1
 657 1212 l 1
 308 176 l 1
108 0 m 1
 108 87 l 1
 600 1564 l 1
 789 1564 l 1
 1280 87 l 1
 1280 0 l 1
 108 0 l 1
EndSplineSet
EndChar

StartChar: v
Encoding: 118 118 572
Width: 1038
VWidth: 0
Flags: W
HStem: 0 21G<411.847 649.839>
LayerCount: 2
Fore
SplineSet
419 0 m 1
 32 1082 l 1
 266 1082 l 1
 357 804 456 535 535 245 c 1
 620 522 701 803 784 1082 c 1
 1013 1082 l 1
 643 0 l 1
 419 0 l 1
EndSplineSet
EndChar

StartChar: w
Encoding: 119 119 573
Width: 1530
VWidth: 0
Flags: W
HStem: 0 21G<307.898 520.957 998.397 1209.25>
LayerCount: 2
Fore
SplineSet
313 0 m 1
 37 1082 l 1
 242 1082 l 1
 424 263 l 1
 661 1082 l 1
 882 1082 l 1
 1110 266 l 1
 1298 1082 l 1
 1488 1082 l 1
 1204 0 l 1
 1004 0 l 1
 767 846 l 1
 515 0 l 1
 313 0 l 1
EndSplineSet
EndChar

StartChar: x
Encoding: 120 120 578
Width: 1039
VWidth: 0
Flags: W
HStem: 0 21G<33 280.807 743.972 1006>
LayerCount: 2
Fore
SplineSet
757 0 m 1
 501 393 l 1
 269 0 l 1
 33 0 l 1
 392 561 l 1
 53 1082 l 1
 300 1082 l 1
 543 709 l 1
 757 1082 l 1
 995 1082 l 1
 653 541 l 1
 1006 0 l 1
 757 0 l 1
EndSplineSet
EndChar

StartChar: y
Encoding: 121 121 579
Width: 1038
VWidth: 0
Flags: W
LayerCount: 2
Fore
SplineSet
464 -453 m 1
 268 -404 l 1
 434 39 l 1
 15 1082 l 1
 240 1082 l 1
 543 307 l 1
 811 1082 l 1
 1032 1082 l 1
 464 -453 l 1
EndSplineSet
EndChar

StartChar: yen
Encoding: 165 165 583
Width: 1260
VWidth: 0
Flags: W
HStem: 0 21<520 760> 255 151<192 591 679 1076> 555 144<193 591 679 1076>
VStem: 520 240<0 538> 591 88<406 555>
LayerCount: 2
Fore
SplineSet
1076 255 m 1xe8
 192 255 l 1
 192 406 l 1
 591 406 l 1
 591 555 l 1
 193 555 l 1
 193 699 l 1
 1076 699 l 1
 1076 555 l 1
 679 555 l 1
 679 406 l 1
 1076 406 l 1
 1076 255 l 1xe8
EndSplineSet
Refer: 135 89 N 1 0 0 1 0 0 2
EndChar

StartChar: z
Encoding: 122 122 585
Width: 1038
VWidth: 0
Flags: W
HStem: 0 170<350 964> 919 163<107 687>
LayerCount: 2
Fore
SplineSet
85 0 m 1
 85 143 l 1
 687 919 l 1
 107 919 l 1
 107 1082 l 1
 937 1082 l 1
 937 925 l 1
 350 170 l 1
 964 170 l 1
 964 0 l 1
 85 0 l 1
EndSplineSet
EndChar

StartChar: zero
Encoding: 48 48 589
Width: 1217
VWidth: 0
Flags: W
HStem: -20 204<480.839 740.663> 1309 204<482.556 742.845>
VStem: 79 244<401.593 1083.74> 894 244<401.169 1098.89>
LayerCount: 2
Fore
SplineSet
611 -20 m 0
 236 -20 79 333 79 746 c 0
 79 1176 246 1513 611 1513 c 0
 978 1513 1138 1174 1138 746 c 0
 1138 333 986 -20 611 -20 c 0
611 184 m 0
 812 184 894 411 894 753 c 0
 894 1095 812 1309 611 1309 c 0
 411 1309 324 1085 323 755 c 1
 323 412 410 184 611 184 c 0
EndSplineSet
EndChar
